<?xml version="1.0" encoding="UTF-8"?>
<svg version="1.1" xmlns="http://www.w3.org/2000/svg" width="512" height="512">
<path d="M0 0 C0.72937313 -0.00350607 1.45874627 -0.00701215 2.21022162 -0.01062447 C4.66140357 -0.01995 7.11234855 -0.01501221 9.56354046 -0.01015663 C11.33582032 -0.01389231 13.10809854 -0.0184935 14.88037413 -0.02388728 C19.75632805 -0.03614286 24.63221349 -0.0358538 29.50817931 -0.03349853 C34.76460973 -0.03309101 40.02101801 -0.0441233 45.27743816 -0.05361366 C55.57793678 -0.0702386 65.8784125 -0.07572388 76.17892341 -0.07683842 C84.55021191 -0.07778817 92.92149285 -0.08189484 101.29277897 -0.08823967 C125.01785397 -0.10585607 148.74291087 -0.1150779 172.46799246 -0.11357872 C174.3872114 -0.11345885 174.3872114 -0.11345885 176.34520245 -0.11333656 C177.62624081 -0.1132548 178.90727917 -0.11317304 180.22713687 -0.1130888 C200.99192862 -0.11227576 221.75664784 -0.13141691 242.52141861 -0.1596133 C263.83365458 -0.18832513 285.14585517 -0.20215453 306.45811099 -0.20042574 C318.42689747 -0.19976126 330.39560794 -0.20527914 342.36437702 -0.22678185 C352.55435284 -0.24497124 362.74421818 -0.2493594 372.93420319 -0.235763 C378.13416559 -0.22922208 383.33391592 -0.22915674 388.5338583 -0.2464695 C393.29411213 -0.26215548 398.05398493 -0.2593824 402.81422921 -0.24190123 C404.53628506 -0.23882147 406.25836903 -0.24250038 407.98039172 -0.25362138 C425.4239822 -0.35881274 425.4239822 -0.35881274 432.93382549 6.22211266 C433.47265362 6.87308922 434.01148174 7.52406578 434.56663799 8.19476891 C435.12093487 8.84316734 435.67523174 9.49156578 436.24632549 10.15961266 C439.49425312 14.87349681 439.94276126 18.89479994 439.9489069 24.56563091 C439.95241297 25.29500405 439.95591905 26.02437718 439.95953137 26.77585253 C439.9688569 29.22703449 439.96391911 31.67797946 439.95906353 34.12917137 C439.96279921 35.90145124 439.9674004 37.67372945 439.97279418 39.44600505 C439.98504976 44.32195897 439.9847607 49.1978444 439.98240542 54.07381022 C439.9819979 59.33024065 439.9930302 64.58664892 440.00252056 69.84306908 C440.0191455 80.14356769 440.02463078 90.44404341 440.02574532 100.74455432 C440.02669507 109.11584282 440.03080174 117.48712377 440.03714657 125.85840988 C440.05476296 149.58348489 440.0639848 173.30854178 440.06248562 197.03362337 C440.06240571 198.31310267 440.0623258 199.59258196 440.06224346 200.91083336 C440.0621617 202.19187172 440.06207994 203.47291008 440.0619957 204.79276779 C440.06118266 225.55755953 440.08032381 246.32227876 440.10852019 267.08704952 C440.13723203 288.3992855 440.15106143 309.71148609 440.14933264 331.0237419 C440.14866816 342.99252838 440.15418604 354.96123885 440.17568874 366.93000793 C440.19387814 377.11998375 440.1982663 387.30984909 440.1846699 397.4998341 C440.17812898 402.69979651 440.17806364 407.89954683 440.1953764 413.09948921 C440.21106238 417.85974305 440.2082893 422.61961584 440.19080813 427.37986013 C440.18772836 429.10191597 440.19140728 430.82399994 440.20252828 432.54602263 C440.30771964 449.98961311 440.30771964 449.98961311 433.72679424 457.49945641 C433.07581768 458.03828453 432.42484112 458.57711266 431.75413799 459.13226891 C431.10573956 459.68656578 430.45734112 460.24086266 429.78929424 460.81195641 C425.07541009 464.05988404 421.05410696 464.50839217 415.38327599 464.51453781 C414.65390285 464.51804389 413.92452972 464.52154996 413.17305437 464.52516228 C410.72187241 464.53448781 408.27092744 464.52955002 405.81973553 464.52469444 C404.04745566 464.52843012 402.27517745 464.53303131 400.50290185 464.53842509 C395.62694793 464.55068067 390.75106249 464.55039161 385.87509668 464.54803634 C380.61866625 464.54762882 375.36225797 464.55866111 370.10583782 464.56815147 C359.80533921 464.58477642 349.50486348 464.59026169 339.20435258 464.59137623 C330.83306407 464.59232599 322.46178313 464.59643265 314.09049702 464.60277748 C290.36542201 464.62039388 266.64036512 464.62961572 242.91528352 464.62811653 C240.99606458 464.62799666 240.99606458 464.62799666 239.03807354 464.62787437 C237.75703518 464.62779261 236.47599682 464.62771085 235.15613911 464.62762661 C214.39134737 464.62681357 193.62662814 464.64595473 172.86185738 464.67415111 C151.5496214 464.70286294 130.23742081 464.71669234 108.925165 464.71496356 C96.95637851 464.71429907 84.98766805 464.71981695 73.01889896 464.74131966 C62.82892315 464.75950906 52.6390578 464.76389721 42.4490728 464.75030081 C37.24911039 464.74375989 32.04936007 464.74369456 26.84941769 464.76100731 C22.08916385 464.77669329 17.32929106 464.77392021 12.56904677 464.75643905 C10.84699093 464.75335928 9.12490696 464.75703819 7.40288427 464.7681592 C-10.04070621 464.87335055 -10.04070621 464.87335055 -17.55054951 458.29242516 C-18.08937763 457.64144859 -18.62820576 456.99047203 -19.18336201 456.31976891 C-19.73765888 455.67137047 -20.29195576 455.02297203 -20.86304951 454.35492516 C-24.11097714 449.641041 -24.55948527 445.61973787 -24.56563091 439.9489069 C-24.56913699 439.21953376 -24.57264306 438.49016063 -24.57625538 437.73868528 C-24.58558092 435.28750332 -24.58064312 432.83655835 -24.57578754 430.38536644 C-24.57952322 428.61308658 -24.58412441 426.84080836 -24.58951819 425.06853276 C-24.60177377 420.19257885 -24.60148471 415.31669341 -24.59912944 410.44072759 C-24.59872192 405.18429717 -24.60975421 399.92788889 -24.61924458 394.67146873 C-24.63586952 384.37097012 -24.64135479 374.0704944 -24.64246933 363.76998349 C-24.64341909 355.39869499 -24.64752575 347.02741404 -24.65387058 338.65612793 C-24.67148698 314.93105293 -24.68070882 291.20599603 -24.67920963 267.48091444 C-24.67912972 266.20143514 -24.67904981 264.92195585 -24.67896748 263.60370445 C-24.67888571 262.32266609 -24.67880395 261.04162773 -24.67871971 259.72177003 C-24.67790668 238.95697828 -24.69704783 218.19225905 -24.72524421 197.42748829 C-24.75395604 176.11525231 -24.76778544 154.80305172 -24.76605666 133.49079591 C-24.76539217 121.52200943 -24.77091005 109.55329896 -24.79241276 97.58452988 C-24.81060216 87.39455406 -24.81499031 77.20468872 -24.80139391 67.01470371 C-24.79485299 61.8147413 -24.79478766 56.61499098 -24.81210041 51.4150486 C-24.82778639 46.65479476 -24.82501331 41.89492197 -24.80753215 37.13467769 C-24.80445238 35.41262184 -24.80813129 33.69053787 -24.8192523 31.96851518 C-24.92444365 14.5249247 -24.92444365 14.5249247 -18.34351826 7.01508141 C-17.69254169 6.47625328 -17.04156513 5.93742516 -16.37086201 5.38226891 C-15.72246357 4.82797203 -15.07406513 4.27367516 -14.40601826 3.70258141 C-9.6921341 0.45465377 -5.67083097 0.00614564 0 0 Z M-6.30836201 19.25726891 C-17.82413497 48.0467013 -8.30836201 81.25010128 -8.30836201 112.25726891 C134.25163799 112.25726891 276.81163799 112.25726891 423.69163799 112.25726891 C429.20155161 63.60245278 429.20155161 63.60245278 420.69163799 18.25726891 C416.80621999 15.90408214 413.06298726 16.00586953 408.59633255 16.00279331 C407.88999745 15.99958683 407.18366236 15.99638036 406.45592317 15.99307671 C404.08312359 15.9847587 401.71057524 15.99070724 399.33777142 15.99657249 C397.62181365 15.99355263 395.90585723 15.98966399 394.1899032 15.98497993 C389.46970581 15.97466991 384.74958412 15.97688938 380.02938044 15.98116052 C374.9406814 15.98362229 369.85200085 15.97462045 364.76330853 15.96712303 C354.79234528 15.95435889 344.82140894 15.95258446 334.8504389 15.95492329 C326.74801223 15.95670463 318.64559375 15.95496079 310.54316807 15.95069885 C309.39102758 15.95010366 308.23888709 15.94950847 307.05183325 15.94889525 C304.71144331 15.94768353 302.37105337 15.9464694 300.03066342 15.94525287 C278.07143944 15.93437081 256.1122308 15.93654303 234.15300595 15.94263772 C214.05292712 15.94780799 193.95289674 15.93654969 173.8528275 15.9175395 C153.22538928 15.89817973 132.597974 15.88990179 111.97052664 15.89366275 C100.38523352 15.89557756 88.79998165 15.89306003 77.21469593 15.87894821 C67.35259108 15.86705717 57.49055286 15.86560391 47.62844712 15.87773838 C42.5948384 15.88364297 37.56135169 15.88468296 32.52775097 15.87273598 C27.92185543 15.86193097 23.31618458 15.86491603 18.71029978 15.87899766 C17.04211677 15.88165949 15.37391645 15.87923178 13.70575035 15.8712618 C11.44115566 15.86119139 9.17734743 15.86954654 6.91278458 15.8825388 C5.654064 15.88248378 4.39534343 15.88242876 3.09847981 15.88237208 C-0.74226414 16.30501651 -3.09834876 17.10930354 -6.30836201 19.25726891 Z M-8.30836201 128.25726891 C-8.37023701 179.61351891 -8.43211201 230.96976891 -8.49586201 283.88226891 C-8.52317402 300.11623863 -8.55048603 316.35020836 -8.57862568 333.07611656 C-8.5886571 347.58983326 -8.5886571 347.58983326 -8.59469318 362.10355186 C-8.59749549 368.58332125 -8.60851981 375.0630134 -8.62508869 381.54276085 C-8.64416092 389.01253399 -8.65287542 396.48223282 -8.64869686 403.9520305 C-8.64688658 407.7746175 -8.64979231 411.59703835 -8.6660074 415.419595 C-8.68325427 419.51018015 -8.67735753 423.60040215 -8.66912556 427.69101524 C-8.67786355 428.88717146 -8.68660154 430.08332767 -8.69560432 431.31573105 C-8.75354007 439.26723503 -8.75354007 439.26723503 -5.30836201 446.25726891 C-1.24631991 448.37467261 2.25003659 448.5086199 6.78694344 448.5117445 C7.49327853 448.51495098 8.19961363 448.51815746 8.92735282 448.5214611 C11.30015239 448.52977911 13.67270074 448.52383057 16.04550457 448.51796532 C17.76146234 448.52098518 19.47741876 448.52487382 21.19337279 448.52955788 C25.91357017 448.5398679 30.63369186 448.53764844 35.35389555 448.53337729 C40.44259459 448.53091552 45.53127514 448.53991736 50.61996746 448.54741478 C60.59093071 448.56017892 70.56186705 448.56195335 80.53283709 448.55961452 C88.63526375 448.55783318 96.73768223 448.55957702 104.84010792 448.56383896 C105.99224841 448.56443415 107.1443889 448.56502934 108.33144273 448.56564256 C110.67183268 448.56685428 113.01222262 448.56806842 115.35261256 448.56928494 C137.31183655 448.580167 159.27104518 448.57799478 181.23027004 448.57190009 C201.33034886 448.56672982 221.43037925 448.57798812 241.53044849 448.59699831 C262.15788671 448.61635808 282.78530198 448.62463602 303.41274935 448.62087506 C314.99804247 448.61896025 326.58329433 448.62147779 338.16858006 448.6355896 C348.03068491 448.64748064 357.89272313 448.6489339 367.75482886 448.63679943 C372.78843759 448.63089484 377.82192429 448.62985485 382.85552502 448.64180183 C387.46142056 448.65260684 392.06709141 448.64962178 396.6729762 448.63554015 C398.34115922 448.63287832 400.00935954 448.63530603 401.67752563 448.64327601 C403.94212032 448.65334642 406.20592856 448.64499127 408.47049141 448.63199902 C409.72921198 448.63205403 410.98793256 448.63210905 412.28479618 448.63216573 C416.12554013 448.2095213 418.48162475 447.40523427 421.69163799 445.25726891 C423.70735266 441.78139753 423.94091989 438.73787686 423.93773365 434.76941013 C423.94171539 433.67229269 423.94569714 432.57517525 423.94979954 431.44481182 C423.94397421 430.24574294 423.93814888 429.04667406 423.93214703 427.81126976 C423.93385906 426.53601433 423.9355711 425.2607589 423.93733501 423.94685936 C423.94182166 420.40229126 423.93379317 416.85784394 423.92378345 413.31329118 C423.91505513 409.43408451 423.91797235 405.55488347 423.91941929 401.67566967 C423.920483 394.14414903 423.91124454 386.61267605 423.89841663 379.08116766 C423.88402364 370.37021003 423.88242752 361.65928109 423.88084698 352.94830894 C423.87034383 329.94712137 423.84242163 306.94594443 423.81663799 283.94476891 C423.77538799 232.56789391 423.73413799 181.19101891 423.69163799 128.25726891 C281.13163799 128.25726891 138.57163799 128.25726891 -8.30836201 128.25726891 Z " fill="#040404" transform="translate(48.30836200714111,23.74273109436035)"/>
<path d="M0 0 C0.86431641 -0.02449219 1.72863281 -0.04898438 2.61914062 -0.07421875 C9.79452004 -0.10671103 14.78318937 1.66962748 20.39453125 6.12890625 C29.54811676 16.44060963 29.48202496 31.24850884 31.1875 44.375 C31.87094482 44.57125977 32.55438965 44.76751953 33.25854492 44.96972656 C34.15677979 45.23237305 35.05501465 45.49501953 35.98046875 45.765625 C36.87016357 46.02375977 37.7598584 46.28189453 38.67651367 46.54785156 C41.1875 47.375 41.1875 47.375 44.5 49.125 C47.74061743 50.63226392 48.81321501 50.34354477 52.1875 49.375 C54.27472247 48.23686096 54.27472247 48.23686096 56.21875 46.7578125 C56.94707031 46.23316406 57.67539062 45.70851562 58.42578125 45.16796875 C59.17214844 44.61753906 59.91851562 44.06710938 60.6875 43.5 C70.5113378 36.35693314 76.72880471 32.45662608 89.1875 33.375 C96.59296251 34.79862507 102.34086466 39.53486074 106.765625 45.50390625 C109.89672609 50.38950364 111.34722696 54.1872298 111.4375 60.0625 C111.47617187 61.55330078 111.47617187 61.55330078 111.515625 63.07421875 C110.68272781 71.45276789 106.54437957 77.07409134 101.5625 83.5625 C100.37480728 85.1123878 99.19480383 86.66820529 98.0234375 88.23046875 C97.24299072 89.24596802 97.24299072 89.24596802 96.44677734 90.28198242 C94.98999431 92.70326992 94.484923 94.57080513 94.1875 97.375 C94.89781361 100.08736688 95.66486903 102.47835165 96.6875 105.0625 C96.91953125 105.73861328 97.1515625 106.41472656 97.390625 107.11132812 C98.20694076 109.37694956 98.20694076 109.37694956 100.1875 112.375 C103.31303027 113.8887008 103.31303027 113.8887008 107.1875 114.375 C108.85290023 114.68470423 110.51826224 114.994614 112.18359375 115.3046875 C114.9075819 115.78271878 117.63223577 116.25118789 120.36132812 116.69921875 C127.06804501 117.89389822 133.2499377 119.47146352 138.2109375 124.375 C138.65695312 125.035 139.10296875 125.695 139.5625 126.375 C140.02398437 127.035 140.48546875 127.695 140.9609375 128.375 C144.29163329 133.80594346 144.55331829 137.82634393 144.5625 144.125 C144.58699219 144.99382812 144.61148437 145.86265625 144.63671875 146.7578125 C144.66923285 153.97594353 143.00743666 159.15702059 138.22265625 164.6171875 C137.57167969 165.15601563 136.92070312 165.69484375 136.25 166.25 C135.60160156 166.80429687 134.95320313 167.35859375 134.28515625 167.9296875 C130.33468755 170.65161193 126.24365075 171.67811345 121.5546875 172.4453125 C120.50152344 172.61933594 119.44835937 172.79335938 118.36328125 172.97265625 C117.27402344 173.14667969 116.18476563 173.32070313 115.0625 173.5 C113.41701172 173.77263672 113.41701172 173.77263672 111.73828125 174.05078125 C103.62370771 175.375 103.62370771 175.375 100.1875 175.375 C100.00574219 176.02726563 99.82398438 176.67953125 99.63671875 177.3515625 C98.48454418 181.35758485 97.3920531 184.9878102 95.4375 188.6875 C93.93023608 191.92811743 94.21895523 193.00071501 95.1875 196.375 C96.32563904 198.46222247 96.32563904 198.46222247 97.8046875 200.40625 C98.32933594 201.13457031 98.85398437 201.86289062 99.39453125 202.61328125 C99.94496094 203.35964844 100.49539063 204.10601562 101.0625 204.875 C108.20556686 214.6988378 112.10587392 220.91630471 111.1875 233.375 C109.76282148 240.7859424 105.02630942 246.48156902 99.09375 250.953125 C94.01373871 254.25134129 90.02289521 255.52067894 83.9375 255.625 C82.59945312 255.66367187 82.59945312 255.66367187 81.234375 255.703125 C73.00143618 254.81650082 67.38186356 250.65007294 61 245.75 C59.4501122 244.56230728 57.89429471 243.38230383 56.33203125 242.2109375 C55.31653198 241.43049072 55.31653198 241.43049072 54.28051758 240.63427734 C51.85818839 239.17686757 49.995314 238.65689672 47.1875 238.375 C44.66221512 239.25644063 42.39582889 240.16841034 40 241.3125 C33.37929601 244.375 33.37929601 244.375 31.1875 244.375 C31.07792969 245.21160156 30.96835937 246.04820312 30.85546875 246.91015625 C26.68376099 277.53659617 26.68376099 277.53659617 17.15625 285.0859375 C10.15632848 289.66921945 2.36053872 290.28311541 -5.8125 289.375 C-12.96073661 287.87754332 -17.72328494 285.30817326 -22.375 279.66796875 C-26.88825058 272.46884351 -27.834021 265.253607 -29 256.9375 C-29.17724609 255.72900391 -29.35449219 254.52050781 -29.53710938 253.27539062 C-29.97082303 250.30972695 -30.39567647 247.34307651 -30.8125 244.375 C-31.49594482 244.17874023 -32.17938965 243.98248047 -32.88354492 243.78027344 C-33.78177979 243.51762695 -34.68001465 243.25498047 -35.60546875 242.984375 C-36.49516357 242.72624023 -37.3848584 242.46810547 -38.30151367 242.20214844 C-40.8125 241.375 -40.8125 241.375 -44.125 239.625 C-47.46596144 238.07106445 -48.33247921 238.24095127 -51.8125 239.375 C-54.3979201 240.98246494 -56.78398238 242.82211936 -59.1875 244.6875 C-68.86286581 252.11118007 -76.25439424 256.52131211 -88.8125 255.375 C-98.05727148 253.25449961 -104.97221297 245.80250625 -109.9375 238.0625 C-111.91961681 229.70929343 -112.0020463 221.84226492 -107.7265625 214.25390625 C-106.12341649 211.84264378 -104.47260548 209.49579248 -102.7734375 207.15234375 C-101.95504395 206.01974121 -101.95504395 206.01974121 -101.12011719 204.86425781 C-100.01075121 203.34668636 -98.88403465 201.8416265 -97.73925781 200.35058594 C-94.67635492 196.47525796 -94.67635492 196.47525796 -93.86328125 191.8046875 C-94.17652344 191.00289062 -94.48976562 190.20109375 -94.8125 189.375 C-94.99941406 188.24964844 -95.18632812 187.12429688 -95.37890625 185.96484375 C-96.98878113 180.02931853 -96.98878113 180.02931853 -100.8125 175.375 C-106.59946883 173.12262096 -112.75937124 172.71907153 -118.89453125 172.1484375 C-127.3465038 171.31086076 -134.47896012 168.14069344 -140.22265625 161.82421875 C-144.1516594 156.36301382 -144.31030354 150.81775907 -144.375 144.3125 C-144.38958252 143.46171875 -144.40416504 142.6109375 -144.41918945 141.734375 C-144.30961429 134.88094686 -142.58019546 129.65881583 -138.13671875 124.38671875 C-137.59660156 123.94972656 -137.05648437 123.51273437 -136.5 123.0625 C-135.96761719 122.61261719 -135.43523437 122.16273438 -134.88671875 121.69921875 C-127.8349281 117.19722811 -120.54253849 116.3326486 -112.375 115.1875 C-111.16650391 115.01025391 -109.95800781 114.83300781 -108.71289062 114.65039062 C-105.74722695 114.21667697 -102.78057651 113.79182353 -99.8125 113.375 C-99.67352295 112.44308838 -99.5345459 111.51117676 -99.39135742 110.55102539 C-98.60979253 106.26280201 -96.6916886 102.88936108 -94.67578125 99.05859375 C-93.56944896 95.61945219 -94.28220222 94.58238599 -95.8125 91.375 C-96.75297482 89.92526667 -97.74522887 88.50806899 -98.78125 87.125 C-99.35230469 86.3515625 -99.92335937 85.578125 -100.51171875 84.78125 C-101.10597656 83.9871875 -101.70023438 83.193125 -102.3125 82.375 C-103.4946188 80.7954226 -104.67187384 79.21219119 -105.84375 77.625 C-106.36517578 76.92890625 -106.88660156 76.2328125 -107.42382812 75.515625 C-111.31673952 69.51473768 -112.63731216 62.39564034 -111.25 55.375 C-108.47315702 46.08183216 -101.80466089 39.37029653 -93.6875 34.5 C-86.89484495 31.9661107 -78.5847384 32.14407113 -72 35.125 C-68.72756055 36.96574719 -65.78386464 39.13148901 -62.8125 41.4140625 C-62.10198486 41.9596582 -61.39146973 42.50525391 -60.65942383 43.06738281 C-59.23620727 44.1763493 -57.82662646 45.30307431 -56.43237305 46.44824219 C-52.75191814 49.5300072 -52.75191814 49.5300072 -48.21484375 50.38671875 C-47.42207031 50.05285156 -46.62929687 49.71898437 -45.8125 49.375 C-44.81992188 48.98183594 -43.82734375 48.58867187 -42.8046875 48.18359375 C-40.72123869 47.26718957 -38.63790591 46.35052156 -36.5546875 45.43359375 C-33.8125 44.375 -33.8125 44.375 -30.8125 44.375 C-30.67457031 43.07691406 -30.53664063 41.77882812 -30.39453125 40.44140625 C-29.86633048 35.71350059 -29.23401725 31.01264361 -28.5 26.3125 C-28.34241211 25.18618164 -28.34241211 25.18618164 -28.18164062 24.03710938 C-27.03336313 16.77723471 -24.67768502 10.30301453 -18.875 5.5 C-18.22660156 4.94570312 -17.57820313 4.39140625 -16.91015625 3.8203125 C-11.45423041 0.06110848 -6.43333803 0.00946775 0 0 Z M-8.8125 20.375 C-9.91894338 22.89352101 -9.91894338 22.89352101 -10.375 25.8125 C-10.60445313 26.94429687 -10.83390625 28.07609375 -11.0703125 29.2421875 C-11.65105528 32.41002006 -12.19416652 35.5841819 -12.7421875 38.7578125 C-12.90904053 39.69439697 -13.07589355 40.63098145 -13.24780273 41.59594727 C-13.57831955 43.46609076 -13.89337517 45.3390437 -14.19165039 47.21459961 C-14.84136666 50.92800184 -15.3577929 53.70872779 -17.5 56.84765625 C-20.50924391 58.83518052 -23.41401291 59.74069456 -26.875 60.75 C-32.86794998 62.57127958 -38.01054847 64.89099564 -43.34765625 68.23828125 C-46.44718171 69.6676979 -48.42675546 69.76231525 -51.8125 69.375 C-60.02439455 65.85728063 -67.1428256 60.035152 -74.09765625 54.51171875 C-77.95301932 51.39754012 -77.95301932 51.39754012 -82.5625 49.875 C-86.52304295 50.4843143 -88.34891606 51.8980409 -91.39453125 54.37890625 C-93.53533025 57.3925379 -93.75386013 59.70414422 -93.8125 63.375 C-92.31594071 66.55893783 -92.31594071 66.55893783 -89.9375 69.5 C-89.10623413 70.62330095 -88.27552201 71.74701185 -87.4453125 72.87109375 C-87.01250977 73.44327637 -86.57970703 74.01545898 -86.13378906 74.60498047 C-83.94647493 77.53514075 -81.88464928 80.55038926 -79.8125 83.5625 C-79.07 84.62855469 -78.3275 85.69460937 -77.5625 86.79296875 C-74.74148522 90.95522493 -74.45635856 93.29474715 -74.8125 98.375 C-76.203125 101.6640625 -76.203125 101.6640625 -78.0625 105 C-81.17198483 110.75359929 -83.19749905 116.35644941 -84.79296875 122.73046875 C-86.00019784 125.86186376 -87.01230487 126.60606697 -89.8125 128.375 C-92.00390625 129.05102539 -92.00390625 129.05102539 -94.375 129.47265625 C-95.68609741 129.71338867 -95.68609741 129.71338867 -97.02368164 129.95898438 C-98.40414673 130.19584961 -98.40414673 130.19584961 -99.8125 130.4375 C-100.75279053 130.60958984 -101.69308105 130.78167969 -102.66186523 130.95898438 C-108.59756161 132.03476223 -114.54265779 132.98353542 -120.53515625 133.6875 C-123.5455052 134.59628459 -124.86259155 135.93652388 -126.8125 138.375 C-128.0814843 142.04338566 -128.05572641 145.46290095 -127.0625 149.1875 C-125.76440192 151.45917164 -124.86033441 152.75210496 -122.8125 154.375 C-119.84243934 155.20091394 -119.84243934 155.20091394 -116.421875 155.65625 C-115.15472656 155.85863281 -113.88757813 156.06101562 -112.58203125 156.26953125 C-111.24235939 156.47249203 -109.90251332 156.67430601 -108.5625 156.875 C-91.93585202 159.39197117 -91.93585202 159.39197117 -86.8125 162.375 C-85.47517212 165.14871708 -84.6365267 167.45476504 -83.8125 170.375 C-83.2035975 172.17220121 -82.57763802 173.96368599 -81.9375 175.75 C-81.60621094 176.68070313 -81.27492187 177.61140625 -80.93359375 178.5703125 C-79.48538618 182.19335444 -77.64371276 185.530122 -75.66796875 188.890625 C-74.42807728 192.49140571 -74.85804134 194.69351658 -75.8125 198.375 C-77.29135392 201.1553169 -79.07589343 203.65201703 -80.9375 206.1875 C-81.43161377 206.88673584 -81.92572754 207.58597168 -82.43481445 208.30639648 C-84.6076496 211.37328304 -86.82753396 214.39483969 -89.09765625 217.390625 C-91.80195638 221.01116645 -93.63550222 223.62908078 -94.6875 228.0625 C-93.61551526 232.12072796 -91.90577092 234.12003794 -89.02734375 237.08984375 C-85.67996422 239.03215039 -83.63460404 238.92898588 -79.8125 238.375 C-76.92798534 236.80987623 -74.47048067 234.82573861 -71.9375 232.75 C-70.5243844 231.64592241 -69.11032913 230.54304639 -67.6953125 229.44140625 C-67.0240332 228.91047363 -66.35275391 228.37954102 -65.66113281 227.83251953 C-63.41520928 226.06176366 -61.14566452 224.34185185 -58.8125 222.6875 C-58.214375 222.25050781 -57.61625 221.81351563 -57 221.36328125 C-52.66961821 219.40687662 -48.89510307 218.77947028 -44.34423828 220.08081055 C-41.63786868 221.15136976 -39.00955403 222.32595013 -36.375 223.5625 C-35.48490234 223.96275391 -34.59480469 224.36300781 -33.67773438 224.77539062 C-31.9066024 225.57362907 -30.14237209 226.38737573 -28.38574219 227.21704102 C-25.84049926 228.40632221 -25.84049926 228.40632221 -23.23144531 229.28100586 C-17.39221069 231.40239112 -17.39221069 231.40239112 -15.78442383 234.09985352 C-15.11653243 236.25913246 -14.74396181 238.32352044 -14.4375 240.5625 C-14.29505859 241.34898926 -14.15261719 242.13547852 -14.00585938 242.94580078 C-13.56626023 245.4173139 -13.18351172 247.89233761 -12.8125 250.375 C-12.44146287 252.75717284 -12.06477109 255.13793607 -11.67333984 257.5168457 C-11.43820724 258.97202696 -11.2214375 260.43033153 -11.02587891 261.89135742 C-10.35098246 266.30178963 -9.34815593 268.61446864 -5.8125 271.375 C-2.66404494 272.94922753 0.77968072 273.04428343 4.1875 272.375 C7.16513806 270.49323753 8.84951353 269.20352715 10.19140625 265.9140625 C10.37574219 264.95242188 10.56007813 263.99078125 10.75 263 C10.97945312 261.87078125 11.20890625 260.7415625 11.4453125 259.578125 C12.04005893 256.30294605 12.57776362 253.01906157 13.1171875 249.734375 C13.28404053 248.74872559 13.45089355 247.76307617 13.62280273 246.74755859 C13.95430349 244.76886814 14.26928093 242.78732953 14.56665039 240.80322266 C14.7186792 239.88589355 14.87070801 238.96856445 15.02734375 238.0234375 C15.15488037 237.20020996 15.28241699 236.37698242 15.41381836 235.52880859 C16.41842253 232.73214782 17.66962278 231.88958846 20.1875 230.375 C22.51977315 229.54026252 24.87792668 228.77632972 27.25 228.0625 C33.22409188 226.2062669 38.39446874 223.85340981 43.72265625 220.51171875 C46.78537996 219.09927406 48.84551912 219.03064794 52.1875 219.375 C54.328125 220.23046875 54.328125 220.23046875 56.4375 221.5625 C57.283125 222.09488281 58.12875 222.62726563 59 223.17578125 C61.58605439 224.96003201 64.10861953 226.78862652 66.625 228.66796875 C67.41616211 229.25489502 68.20732422 229.84182129 69.02246094 230.4465332 C70.61447167 231.6353912 72.1962236 232.83813008 73.76660156 234.05541992 C77.09181745 236.54933183 79.34559524 238.23683617 83.49609375 238.91796875 C87.90078289 238.02935948 90.38670326 235.80749817 93.1875 232.375 C94.6502061 228.7530611 94.76471548 226.74648305 93.2421875 223.12890625 C89.75318279 216.89854069 85.15351911 211.57293263 80.45703125 206.234375 C77.33074635 202.29557888 74.54349387 198.45294955 75.125 193.25 C75.89362053 188.19061869 78.1680011 184.10951935 80.58203125 179.6484375 C82.84064423 175.04328501 84.22089631 170.23399417 85.62109375 165.30859375 C87.2929225 162.17756285 88.46815382 161.13813018 91.79956055 159.96850586 C98.06699623 158.41077801 104.49350455 157.56967729 110.88012695 156.64819336 C112.82195657 156.36431965 114.76066797 156.05936887 116.69921875 155.75390625 C118.42338013 155.49975952 118.42338013 155.49975952 120.18237305 155.24047852 C123.59497753 154.25764621 124.97505774 153.10739746 127.1875 150.375 C128.647563 146.84651442 128.51734477 143.13523038 128.1875 139.375 C126.07600444 135.84179921 124.82767586 134.57486711 120.859375 133.3359375 C119.56515625 133.14257812 118.2709375 132.94921875 116.9375 132.75 C115.5090768 132.51846214 114.08069253 132.28668403 112.65234375 132.0546875 C111.91870605 131.94350586 111.18506836 131.83232422 110.42919922 131.71777344 C106.77593476 131.15916058 103.1380483 130.52434833 99.5 129.875 C98.21738281 129.6584375 96.93476563 129.441875 95.61328125 129.21875 C92.03406388 128.33720958 89.96602063 127.79840746 87.1875 125.375 C85.68565974 122.46148339 84.69409154 119.42619533 83.6875 116.3125 C81.54866515 110.04498368 79.36297949 104.18603302 75.9375 98.48046875 C74.85816579 95.45046283 75.37365779 93.45653848 76.1875 90.375 C77.4296875 87.91015625 77.4296875 87.91015625 79.0625 85.4375 C79.98869141 84.02404297 79.98869141 84.02404297 80.93359375 82.58203125 C82.61074069 80.19565753 84.3165855 77.88052894 86.09765625 75.57421875 C86.5973291 74.91993896 87.09700195 74.26565918 87.61181641 73.59155273 C88.60240444 72.30417187 89.60816551 71.02829138 90.63037109 69.76586914 C93.09802505 66.5637841 94.13268496 64.76653599 94.70703125 60.6640625 C94.14081115 57.07942096 93.57650076 55.90614775 90.9375 53.5 C90.33421875 52.92507812 89.7309375 52.35015625 89.109375 51.7578125 C86.95779323 50.20972318 85.84151577 49.52029283 83.1875 49.375 C77.36477256 51.57031403 72.55065393 55.65695032 67.625 59.375 C65.9585781 60.62706142 64.29065376 61.87712616 62.62109375 63.125 C61.88947021 63.67671875 61.15784668 64.2284375 60.40405273 64.796875 C55.85239023 68.03753437 52.91684461 70.09207347 47.1875 69.375 C44.06640625 68.01953125 44.06640625 68.01953125 40.75 66.1875 C34.43485434 62.76740281 28.22553149 60.74472725 21.26953125 59.00390625 C18.1875 57.375 18.1875 57.375 16.4140625 54.10546875 C14.18932786 46.71518099 13.32105421 38.9012642 12.16992188 31.2890625 C11.97076172 30.07476562 11.77160156 28.86046875 11.56640625 27.609375 C11.31225952 25.95760254 11.31225952 25.95760254 11.05297852 24.27246094 C10.05674582 20.93725935 8.85266154 19.56176648 6.1875 17.375 C0.33424808 14.44837404 -4.44664704 16.03835007 -8.8125 20.375 Z " fill="#040404" transform="translate(255.8125,167.625)"/>
<path d="M0 0 C1.35776433 -0.00679667 1.35776433 -0.00679667 2.74295825 -0.01373065 C5.77674469 -0.02639316 8.81035204 -0.02475307 11.84416199 -0.02310181 C14.01908601 -0.02908591 16.19400791 -0.03589118 18.368927 -0.04345703 C24.27808187 -0.06113653 30.18717883 -0.06581325 36.09635758 -0.0670886 C41.0292372 -0.06898739 45.96210332 -0.07634473 50.89497775 -0.08343279 C62.53364507 -0.09972186 74.17228145 -0.10460128 85.81095886 -0.10317993 C97.81645344 -0.10197844 109.82174323 -0.12308076 121.82719499 -0.15466726 C132.13477512 -0.18082014 142.44229652 -0.19154763 152.74990958 -0.19026911 C158.90602827 -0.18975918 165.06198725 -0.19545984 171.21807289 -0.21662521 C177.00883801 -0.23599071 182.79929077 -0.23614337 188.59006691 -0.22159195 C190.71367855 -0.21950066 192.83730965 -0.22422376 194.96088791 -0.23631287 C197.86369618 -0.25176574 200.76542754 -0.24245658 203.66821289 -0.22705078 C204.50529008 -0.23733791 205.34236727 -0.24762503 206.20481044 -0.25822389 C212.9627025 -0.17916055 218.15925261 1.7565185 223.26676941 6.23226929 C223.80559753 6.88324585 224.34442566 7.53422241 224.89958191 8.20492554 C225.45387878 8.85332397 226.00817566 9.50172241 226.57926941 10.16976929 C230.85560953 16.3762413 230.39693053 22.7317986 230.39518738 30.02255249 C230.39954793 32.0640184 230.43587057 34.10329634 230.47380066 36.14437866 C230.49983236 44.93007793 229.99948138 50.73145676 224.05973816 57.50961304 C223.08327332 58.31785522 223.08327332 58.31785522 222.08708191 59.14242554 C221.43868347 59.69672241 220.79028503 60.25101929 220.12223816 60.82211304 C216.02491714 63.64522063 212.41524858 64.51754193 207.47695923 64.53485107 C206.37361237 64.54338104 205.2702655 64.55191101 204.13348389 64.56069946 C202.9327977 64.55979309 201.73211151 64.55888672 200.49504089 64.55795288 C199.22301819 64.5646701 197.95099548 64.57138733 196.64042664 64.57830811 C193.15914087 64.59594041 189.67795348 64.60066214 186.19662738 64.60193968 C184.02111018 64.60336275 181.84561789 64.60763518 179.67010689 64.61293411 C172.07934611 64.63142116 164.48865548 64.63960588 156.89787292 64.63803101 C149.82281734 64.6368281 142.74806607 64.65796281 135.67308754 64.68951833 C129.59567754 64.71565851 123.51836714 64.72639935 117.44090134 64.72512019 C113.81227249 64.72461013 110.18391454 64.73031779 106.55534172 64.75147629 C102.51159142 64.77441412 98.4685256 64.76535183 94.42472839 64.75326538 C93.22201797 64.76450439 92.01930756 64.77574341 90.78015137 64.787323 C89.67962433 64.77893402 88.57909729 64.77054504 87.44522095 64.76190186 C86.01143427 64.76353616 86.01143427 64.76353616 84.54868221 64.76520348 C81.28355134 64.12128686 80.08937822 62.8192707 78.02458191 60.26742554 C77.49333191 58.26742554 77.49333191 58.26742554 77.52458191 56.26742554 C77.50911316 55.27742554 77.50911316 55.27742554 77.49333191 54.26742554 C78.26547551 51.36053199 79.73423 50.17516547 82.02458191 48.26742554 C84.43936062 47.76520348 84.43936062 47.76520348 87.17947388 47.76190186 C88.22110184 47.75087936 89.2627298 47.73985687 90.33592224 47.72850037 C92.04180511 47.74075905 92.04180511 47.74075905 93.78215027 47.75326538 C95.58514336 47.74257774 95.58514336 47.74257774 97.42456055 47.73167419 C100.03645112 47.71899188 102.64717201 47.71353104 105.25897026 47.72043991 C109.39002699 47.73123114 113.52067369 47.71383888 117.65167236 47.69262695 C124.18693085 47.66236999 130.72206784 47.65067267 137.25739056 47.6470505 C148.9572345 47.64040395 160.65699385 47.61136018 172.35673434 47.56195414 C176.4615739 47.54547235 180.56623677 47.54003631 184.67110622 47.54354453 C187.82662849 47.54408494 190.98211337 47.53228729 194.13761902 47.52279663 C195.27285004 47.52692062 196.40808105 47.53104462 197.57771301 47.53529358 C198.6221608 47.52991074 199.66660858 47.52452789 200.7427063 47.51898193 C201.6473207 47.51864645 202.5519351 47.51831097 203.48396206 47.51796532 C206.33791322 47.2365268 208.45982298 46.54025838 211.02458191 45.26742554 C213.49837977 41.21397363 213.32569465 36.88460943 213.27458191 32.26742554 C213.28231628 31.56875366 213.29005066 30.87008179 213.29801941 30.15023804 C213.28282362 26.12335327 213.14697522 22.74508204 211.02458191 19.26742554 C206.68424935 16.90496145 202.37653237 16.98630618 197.56047058 17.01345825 C196.71034739 17.01033827 195.86022421 17.00721829 194.98433971 17.00400376 C192.13700607 16.99602934 189.28988587 17.00234527 186.44255066 17.00863647 C184.40068944 17.00592637 182.35882921 17.00236533 180.31697083 16.99801636 C174.77162915 16.98889245 169.22636182 16.99243665 163.68101883 16.99877453 C157.88041736 17.00383449 152.0798223 16.99914308 146.27922058 16.9960022 C136.53775386 16.99236255 126.79631746 16.99716164 117.05485535 17.00668335 C105.78894337 17.01756788 94.52310379 17.01404231 83.25719357 17.00303054 C73.58829853 16.99395765 63.9194253 16.9926724 54.25052738 16.99790788 C48.47405879 17.00102756 42.69762424 17.00143694 36.92115784 16.9948349 C31.4907886 16.98906207 26.06051279 16.99305725 20.63015366 17.00462341 C18.63590526 17.00727032 16.64164901 17.00650438 14.64740372 17.00209808 C11.92772702 16.99664249 9.20835073 17.00347702 6.48869324 17.01345825 C5.6973508 17.00899681 4.90600836 17.00453537 4.09068584 16.99993873 C-0.01593293 17.02922164 -3.33387974 17.28531853 -6.97541809 19.26742554 C-9.44921595 23.32087745 -9.27653083 27.65024165 -9.22541809 32.26742554 C-9.23315247 32.96609741 -9.24088684 33.66476929 -9.24885559 34.38461304 C-9.2336598 38.4114978 -9.0978114 41.78976903 -6.97541809 45.26742554 C-3.09871901 47.25469584 0.17899822 47.51790523 4.49723816 47.54086304 C6.3409198 47.57180054 6.3409198 47.57180054 8.22184753 47.60336304 C10.8025093 47.6294435 13.38326245 47.64764944 15.96403503 47.65805054 C17.19186707 47.68125366 18.4196991 47.70445679 19.68473816 47.72836304 C20.80501404 47.73658081 21.92528992 47.74479858 23.07951355 47.75326538 C26.64713999 48.37611387 27.8208533 49.45204309 30.02458191 52.26742554 C30.55583191 54.26742554 30.55583191 54.26742554 30.52458191 56.26742554 C30.53489441 56.92742554 30.54520691 57.58742554 30.55583191 58.26742554 C29.75843282 61.26939857 28.47204955 62.3628649 26.02458191 64.26742554 C23.29775733 64.6661061 20.98253665 64.82931095 18.25895691 64.79867554 C17.50672852 64.80250244 16.75450012 64.80632935 15.97947693 64.81027222 C14.38919231 64.81298988 12.79886289 64.80563869 11.20866394 64.78890991 C8.79600479 64.76761463 6.3863638 64.78865071 3.97380066 64.81430054 C-5.16301801 64.83228383 -12.04135571 64.59117706 -19.21760559 58.30258179 C-19.75643372 57.65160522 -20.29526184 57.00062866 -20.85041809 56.32992554 C-21.40471497 55.6815271 -21.95901184 55.03312866 -22.53010559 54.36508179 C-26.80644571 48.15860977 -26.34776672 41.80305247 -26.34602356 34.51229858 C-26.35038411 32.47083267 -26.38670675 30.43155473 -26.42463684 28.39047241 C-26.45066854 19.60477314 -25.95031756 13.80339431 -20.01057434 7.02523804 C-19.35959778 6.48640991 -18.70862122 5.94758179 -18.03791809 5.39242554 C-17.38951965 4.83812866 -16.74112122 4.28383179 -16.07307434 3.71273804 C-10.83131246 0.10109577 -6.1589031 -0.02260734 0 0 Z " fill="#040404" transform="translate(81.97541809082031,55.732574462890625)"/>
<path d="M0 0 C11.28842857 9.61041892 19.9057793 23.08669566 22.3515625 37.90234375 C23.95349172 58.41706182 21.02281318 76.82742608 7.41992188 92.86889648 C-2.88378928 104.31118958 -17.69276286 112.87804946 -33.23925781 114.10717773 C-53.4598821 114.83144909 -70.75095513 111.45517734 -86.1484375 97.58984375 C-97.68281514 86.67787225 -105.32670171 71.37580381 -105.984375 55.44921875 C-106.15233202 44.59140071 -106.07734136 34.97991516 -101.6484375 24.90234375 C-101.10509766 23.59136719 -101.10509766 23.59136719 -100.55078125 22.25390625 C-92.83695149 5.25733219 -78.61527656 -5.32160524 -61.82421875 -12.265625 C-40.21877519 -18.98381402 -17.34376392 -13.73687496 0 0 Z M-72.0234375 13.27734375 C-73.58496211 14.79889333 -75.12867401 16.33908077 -76.6484375 17.90234375 C-77.52822266 18.75119141 -77.52822266 18.75119141 -78.42578125 19.6171875 C-87.52874359 29.0907539 -89.12865646 41.76906089 -88.92578125 54.2734375 C-88.40203656 67.07000548 -81.9154804 77.39297011 -72.84375 86.05078125 C-61.39852684 95.70386982 -49.34736676 97.98140001 -34.77832031 97.109375 C-23.08661133 95.97290443 -13.16154244 89.20746407 -5.2421875 80.83984375 C4.18091284 69.38431 6.42491389 57.48545998 5.56298828 43.03662109 C4.36440146 30.93726085 -2.56731147 21.21130336 -11.0859375 12.98046875 C-28.66232578 -1.27355345 -54.84271355 -1.82008883 -72.0234375 13.27734375 Z " fill="#040404" transform="translate(297.6484375,262.09765625)"/>
<path d="M0 0 C4.8846525 2.26787438 7.73212562 5.1153475 10 10 C10.75381535 15.5997712 10.77303575 20.33499991 8.375 25.5 C3.80134327 30.3143755 0.6912538 32.25156236 -6 32.5 C-12.6912538 32.25156236 -15.80134327 30.3143755 -20.375 25.5 C-22.77303575 20.33499991 -22.75381535 15.5997712 -22 10 C-17.52212837 0.3553534 -9.85292056 -1.32635469 0 0 Z " fill="#040404" transform="translate(446,72)"/>
<path d="M0 0 C4.8846525 2.26787438 7.73212562 5.1153475 10 10 C10.75381535 15.5997712 10.77303575 20.33499991 8.375 25.5 C3.80134327 30.3143755 0.6912538 32.25156236 -6 32.5 C-12.6912538 32.25156236 -15.80134327 30.3143755 -20.375 25.5 C-22.77303575 20.33499991 -22.75381535 15.5997712 -22 10 C-17.52212837 0.3553534 -9.85292056 -1.32635469 0 0 Z " fill="#040404" transform="translate(398,72)"/>
<path d="M0 0 C4.8846525 2.26787438 7.73212562 5.1153475 10 10 C10.75381535 15.5997712 10.77303575 20.33499991 8.375 25.5 C3.80134327 30.3143755 0.6912538 32.25156236 -6 32.5 C-12.6912538 32.25156236 -15.80134327 30.3143755 -20.375 25.5 C-22.77303575 20.33499991 -22.75381535 15.5997712 -22 10 C-17.52212837 0.3553534 -9.85292056 -1.32635469 0 0 Z " fill="#040404" transform="translate(350,72)"/>
<path d="M0 0 C2.5 1.5 2.5 1.5 4 4 C4.791013 8.02098277 4.62153384 10.96411027 2.5 14.5 C-1.03588973 16.62153384 -3.97901723 16.791013 -8 16 C-10.5 14.5 -10.5 14.5 -12 12 C-12.791013 7.97901723 -12.62153384 5.03588973 -10.5 1.5 C-6.96411027 -0.62153384 -4.02098277 -0.791013 0 0 Z " fill="#040404" transform="translate(140,104)"/>
</svg>
