<?xml version="1.0" standalone="no"?>
<!DOCTYPE svg PUBLIC "-//W3C//DTD SVG 20010904//EN"
 "http://www.w3.org/TR/2001/REC-SVG-20010904/DTD/svg10.dtd">
<svg version="1.0" xmlns="http://www.w3.org/2000/svg"
 width="1200.000000pt" height="1200.000000pt" viewBox="0 0 1200.000000 1200.000000"
 preserveAspectRatio="xMidYMid meet">

<g transform="translate(0.000000,1200.000000) scale(0.100000,-0.100000)"
fill="#000000" stroke="none">
<path d="M3019 10705 c-14 -8 -35 -27 -45 -42 -18 -26 -19 -57 -22 -565 l-3
-538 -767 0 c-858 0 -818 3 -854 -70 -17 -33 -18 -215 -18 -3365 0 -3206 1
-3332 18 -3364 10 -19 34 -43 53 -53 32 -17 113 -18 1956 -18 l1923 0 0 -210
0 -210 -570 0 c-619 0 -615 0 -658 -55 -22 -27 -22 -32 -22 -437 0 -449 0
-446 60 -482 26 -15 187 -16 1932 -16 1502 0 1908 3 1928 13 13 7 35 28 47 46
23 34 23 34 23 430 0 443 0 446 -70 483 -32 17 -72 18 -617 18 l-583 0 0 210
0 210 1928 0 c1847 0 1929 1 1961 18 19 10 43 34 53 53 17 32 18 158 18 3364
0 3150 -1 3332 -18 3365 -10 20 -32 42 -52 52 -33 17 -120 18 -1387 18 l-1353
0 0 536 c0 588 2 571 -60 608 -26 15 -222 16 -2402 16 -2028 -1 -2377 -3
-2399 -15z m4603 -282 c0 -21 1 -45 0 -53 -2 -16 -1 -2358 0 -2770 1 -140 1
-783 0 -1427 l-2 -1173 -2205 0 -2205 0 0 2730 0 2730 2205 0 2205 0 2 -37z
m-4672 -1208 l0 -85 -494 0 c-491 0 -493 0 -521 -22 -59 -46 -55 166 -54
-2990 0 -2222 3 -2911 12 -2938 7 -19 27 -44 46 -57 l34 -23 4016 0 c4010 0
4016 0 4049 20 67 41 62 -204 62 3000 0 3138 3 2937 -50 2985 -22 20 -40 20
-1094 25 l-1071 5 -3 83 -3 82 1276 0 1275 0 0 -3175 0 -3175 -4430 0 -4430 0
0 3175 0 3175 690 0 690 0 0 -85z m0 -2345 c0 -2182 -4 -2046 55 -2100 l27
-25 2371 -3 c1697 -1 2380 1 2399 9 14 6 37 22 50 36 l23 25 5 2031 5 2032
978 3 977 2 0 -2760 0 -2760 -3850 0 -3850 0 0 2753 c0 1515 3 2757 7 2760 3
4 186 7 405 7 l398 0 0 -2010z m3520 -4390 l0 -210 -475 0 -475 0 0 210 0 210
475 0 475 0 0 -210z m1270 -705 l0 -235 -1740 0 -1740 0 0 228 c0 126 3 232 7
235 3 4 786 7 1740 7 l1733 0 0 -235z"/>
<path d="M3679 10091 l-39 -39 0 -1526 0 -1526 34 -38 34 -37 1699 -3 c1689
-2 1698 -2 1731 18 66 40 62 -62 62 1590 0 1658 5 1539 -63 1580 -31 20 -64
20 -1726 20 l-1693 0 -39 -39z m3261 -1137 l0 -916 -47 40 c-27 22 -73 66
-103 97 -68 70 -96 85 -155 85 -65 0 -81 -20 -204 -243 -57 -103 -108 -190
-113 -193 -5 -4 -125 108 -266 247 -142 140 -313 309 -382 376 -199 193 -177
198 -515 -137 l-260 -259 -215 161 c-118 88 -235 173 -259 189 -51 33 -113 39
-149 13 -13 -9 -101 -116 -197 -239 l-173 -224 -4 82 c-2 45 -2 477 0 960 l2
877 1520 0 1520 0 0 -916z m-668 -1454 c38 -31 109 -34 149 -7 15 10 71 98
139 220 62 111 114 204 116 206 2 2 62 -52 134 -119 l130 -123 0 -249 0 -248
-1520 0 -1520 0 0 173 0 173 230 297 c152 196 235 295 243 290 7 -4 113 -82
237 -173 124 -92 235 -172 247 -178 30 -16 78 -15 111 2 15 8 137 125 271 260
l245 245 378 -372 c208 -205 393 -383 410 -397z"/>
<path d="M5900 9681 c-114 -22 -212 -75 -293 -160 -189 -198 -188 -509 3 -712
104 -112 237 -169 390 -169 230 0 412 134 491 360 32 92 32 248 0 340 -53 155
-173 274 -321 321 -73 23 -202 32 -270 20z m184 -265 c65 -20 106 -54 141
-117 26 -47 30 -64 29 -129 -1 -88 -16 -130 -71 -190 -157 -176 -456 -51 -457
191 0 54 5 74 30 120 64 113 197 164 328 125z"/>
<path d="M3865 6670 c-30 -12 -64 -53 -74 -88 -13 -43 2 -92 40 -128 l30 -29
1532 -3 c1132 -2 1539 1 1560 9 101 42 105 183 7 234 -25 13 -226 15 -1552 14
-838 0 -1532 -4 -1543 -9z"/>
<path d="M3844 6160 c-57 -37 -75 -127 -37 -179 11 -14 35 -34 54 -43 32 -17
126 -18 1547 -18 1263 0 1518 2 1546 14 51 21 76 60 76 117 0 42 -5 55 -34 87
l-34 37 -1544 2 c-1532 3 -1543 3 -1574 -17z"/>
<path d="M3844 5680 c-57 -37 -75 -127 -37 -179 11 -14 35 -34 54 -43 32 -17
126 -18 1547 -18 1263 0 1518 2 1546 14 51 21 76 60 76 117 0 42 -5 55 -34 87
l-34 37 -1544 2 c-1532 3 -1543 3 -1574 -17z"/>
</g>
</svg>
