<?xml version="1.0" encoding="UTF-8"?>
<svg version="1.1" xmlns="http://www.w3.org/2000/svg" width="512" height="512">
<path d="M0 0 C3.83532733 1.0608177 7.354029 1.87305649 11.3527832 2.01586914 C14.77778384 2.33596266 17.67975952 3.01289314 20.88793945 4.24633789 C22.1262854 4.72031006 22.1262854 4.72031006 23.38964844 5.20385742 C27.03849218 6.64787543 30.66862097 8.12987063 34.2902832 9.64086914 C34.2902832 10.30086914 34.2902832 10.96086914 34.2902832 11.64086914 C35.7153418 11.73174805 35.7153418 11.73174805 37.16918945 11.82446289 C42.38977745 12.57026118 46.66859793 15.18281576 51.2277832 17.70336914 C52.53972656 18.41203125 52.53972656 18.41203125 53.87817383 19.13500977 C56.02091313 20.2941966 58.1578285 21.46290231 60.2902832 22.64086914 C60.2902832 23.30086914 60.2902832 23.96086914 60.2902832 24.64086914 C61.09208008 24.68598633 61.89387695 24.73110352 62.7199707 24.77758789 C67.68998999 25.97931028 71.24419493 28.57171191 75.4152832 31.45336914 C76.21321289 31.98768555 77.01114258 32.52200195 77.83325195 33.07250977 C81.6738193 35.67883802 85.09883078 38.24453335 88.2902832 41.64086914 C89.61595519 42.3226433 90.94782009 42.9927835 92.2902832 43.64086914 C92.6202832 44.30086914 92.9502832 44.96086914 93.2902832 45.64086914 C93.9502832 45.95024414 94.6102832 46.25961914 95.2902832 46.57836914 C97.2902832 47.64086914 97.2902832 47.64086914 98.2902832 50.64086914 C98.9090332 50.76461914 99.5277832 50.88836914 100.1652832 51.01586914 C102.2902832 51.64086914 102.2902832 51.64086914 103.7277832 54.07836914 C105.0465515 56.82054448 105.0465515 56.82054448 107.6652832 57.57836914 C111.33074878 59.06200997 112.89730278 61.55518386 115.2902832 64.64086914 C117.3894011 67.287583 118.04927017 67.58888594 121.4777832 68.32836914 C122.4059082 68.43149414 123.3340332 68.53461914 124.2902832 68.64086914 C124.8471582 67.86743164 124.8471582 67.86743164 125.4152832 67.07836914 C127.0000603 65.01815891 128.58850928 62.97029858 130.2277832 60.95336914 C130.71118164 60.35137695 131.19458008 59.74938477 131.69262695 59.12915039 C133.55187142 57.39718916 134.86986779 57.2423057 137.2902832 56.64086914 C138.2802832 55.15586914 138.2802832 55.15586914 139.2902832 53.64086914 C141.48351624 50.35101959 141.7338748 50.35215082 145.2902832 49.64086914 C145.98965852 48.32439795 146.65757454 46.99064763 147.2902832 45.64086914 C148.7752832 45.14586914 148.7752832 45.14586914 150.2902832 44.64086914 C150.6202832 43.98086914 150.9502832 43.32086914 151.2902832 42.64086914 C152.7752832 42.14586914 152.7752832 42.14586914 154.2902832 41.64086914 C155.42196895 40.46476208 156.55352005 39.2885251 157.68432617 38.11157227 C161.03637878 35.04182996 165.00478504 32.78231354 168.8527832 30.39086914 C169.70291992 29.84946289 170.55305664 29.30805664 171.42895508 28.75024414 C177.80243966 24.75119499 177.80243966 24.75119499 180.37597656 24.16918945 C182.75337158 23.5130636 183.61819407 22.41670103 185.2902832 20.64086914 C187.7802211 19.08805853 190.41475904 17.82384012 193.0402832 16.51586914 C193.7312207 16.1562207 194.4221582 15.79657227 195.1340332 15.42602539 C199.57897417 13.19519976 203.33119431 12.06927211 208.2902832 11.64086914 C208.2902832 10.98086914 208.2902832 10.32086914 208.2902832 9.64086914 C211.79805105 8.03731813 214.43383199 7.4205005 218.2902832 7.64086914 C218.2902832 6.98086914 218.2902832 6.32086914 218.2902832 5.64086914 C224.49528995 3.38354858 230.31035539 1.40838224 236.91137695 0.92211914 C241.79973916 0.34418469 246.54499116 -1.08247868 251.2902832 -2.35913086 C251.2902832 -3.01913086 251.2902832 -3.67913086 251.2902832 -4.35913086 C255.97497266 -4.89671817 260.65422875 -5.39796563 265.3527832 -5.79663086 C269.95284497 -6.2013849 274.52454027 -6.76213497 279.1027832 -7.35913086 C294.66296408 -9.35426159 309.64751227 -9.78120094 325.2902832 -8.35913086 C325.2902832 0.22086914 325.2902832 8.80086914 325.2902832 17.64086914 C335.1902832 17.64086914 345.0902832 17.64086914 355.2902832 17.64086914 C355.2902832 17.97086914 355.2902832 18.30086914 355.2902832 18.64086914 C345.3902832 18.64086914 335.4902832 18.64086914 325.2902832 18.64086914 C325.2902832 19.30086914 325.2902832 19.96086914 325.2902832 20.64086914 C335.5202832 20.64086914 345.7502832 20.64086914 356.2902832 20.64086914 C356.2902832 132.84086914 356.2902832 245.04086914 356.2902832 360.64086914 C287.3202832 360.64086914 218.3502832 360.64086914 147.2902832 360.64086914 C146.9602832 361.30086914 146.6302832 361.96086914 146.2902832 362.64086914 C145.9602832 363.28024414 145.6302832 363.91961914 145.2902832 364.57836914 C144.18115327 366.75269364 144.18115327 366.75269364 143.2902832 369.64086914 C142.6302832 369.97086914 141.9702832 370.30086914 141.2902832 370.64086914 C140.73856445 371.31053711 140.1868457 371.98020508 139.6184082 372.67016602 C136.39357475 375.39991178 134.22537503 375.15752968 130.0402832 375.17211914 C129.34515625 375.17594604 128.6500293 375.17977295 127.93383789 375.18371582 C126.4680028 375.18643094 125.00211893 375.17909749 123.53637695 375.16235352 C121.29699345 375.14093333 119.06081734 375.16216357 116.8215332 375.18774414 C115.39444281 375.18510079 113.96735441 375.17997564 112.5402832 375.17211914 C111.24606445 375.16760742 109.9518457 375.1630957 108.6184082 375.15844727 C104.73310973 374.55421951 103.74737446 373.60432042 101.2902832 370.64086914 C100.3002832 369.98086914 99.3102832 369.32086914 98.2902832 368.64086914 C97.6027832 365.51586914 97.6027832 365.51586914 97.2902832 362.64086914 C96.6302832 362.64086914 95.9702832 362.64086914 95.2902832 362.64086914 C95.2902832 361.98086914 95.2902832 361.32086914 95.2902832 360.64086914 C26.3202832 360.64086914 -42.6497168 360.64086914 -113.7097168 360.64086914 C-113.7097168 248.44086914 -113.7097168 136.24086914 -113.7097168 20.64086914 C-103.4797168 20.64086914 -93.2497168 20.64086914 -82.7097168 20.64086914 C-82.7097168 19.98086914 -82.7097168 19.32086914 -82.7097168 18.64086914 C-92.6097168 18.64086914 -102.5097168 18.64086914 -112.7097168 18.64086914 C-112.7097168 18.31086914 -112.7097168 17.98086914 -112.7097168 17.64086914 C-102.8097168 17.64086914 -92.9097168 17.64086914 -82.7097168 17.64086914 C-82.7097168 9.06086914 -82.7097168 0.48086914 -82.7097168 -8.35913086 C-54.81228294 -10.89526121 -26.94681676 -7.54971921 0 0 Z M256.2902832 -4.35913086 C260.2902832 -3.35913086 260.2902832 -3.35913086 260.2902832 -3.35913086 Z M-62.7097168 8.64086914 C-62.7097168 95.43086914 -62.7097168 182.22086914 -62.7097168 271.64086914 C-62.3797168 271.64086914 -62.0497168 271.64086914 -61.7097168 271.64086914 C-61.7097168 184.85086914 -61.7097168 98.06086914 -61.7097168 8.64086914 C-62.0397168 8.64086914 -62.3697168 8.64086914 -62.7097168 8.64086914 Z M304.2902832 8.64086914 C304.2902832 95.43086914 304.2902832 182.22086914 304.2902832 271.64086914 C304.6202832 271.64086914 304.9502832 271.64086914 305.2902832 271.64086914 C305.2902832 184.85086914 305.2902832 98.06086914 305.2902832 8.64086914 C304.9602832 8.64086914 304.6302832 8.64086914 304.2902832 8.64086914 Z M-60.7097168 9.64086914 C-60.7097168 9.97086914 -60.7097168 10.30086914 -60.7097168 10.64086914 C-56.0897168 10.64086914 -51.4697168 10.64086914 -46.7097168 10.64086914 C-46.7097168 10.31086914 -46.7097168 9.98086914 -46.7097168 9.64086914 C-51.3297168 9.64086914 -55.9497168 9.64086914 -60.7097168 9.64086914 Z M289.2902832 9.64086914 C289.2902832 9.97086914 289.2902832 10.30086914 289.2902832 10.64086914 C293.9102832 10.64086914 298.5302832 10.64086914 303.2902832 10.64086914 C303.2902832 10.31086914 303.2902832 9.98086914 303.2902832 9.64086914 C298.6702832 9.64086914 294.0502832 9.64086914 289.2902832 9.64086914 Z M268.2902832 12.64086914 C267.9602832 12.97086914 267.6302832 13.30086914 267.2902832 13.64086914 C265.87804373 13.8246937 264.45977276 13.96321188 263.0402832 14.07836914 C259.42433166 14.43768294 256.64627866 15.22781842 253.2902832 16.64086914 C251.7124707 16.85743164 251.7124707 16.85743164 250.1027832 17.07836914 C241.76436771 18.13705997 241.76436771 18.13705997 234.7668457 22.21508789 C232.80952112 24.10509708 231.59432703 24.00064944 228.9152832 24.07836914 C224.46047019 24.43647308 222.68508733 25.67041553 219.2902832 28.64086914 C214.068933 31.47985423 209.20353321 33.13761382 203.2902832 33.64086914 C203.2902832 34.30086914 203.2902832 34.96086914 203.2902832 35.64086914 C202.3621582 35.74399414 201.4340332 35.84711914 200.4777832 35.95336914 C197.10801394 36.68018212 196.42328074 37.12005386 194.2902832 39.64086914 C190.53326728 42.66863627 186.42479583 45.18977364 182.3527832 47.76586914 C181.64959961 48.2209082 180.94641602 48.67594727 180.22192383 49.14477539 C176.5321094 51.47554852 173.65947602 52.96232026 169.2902832 53.64086914 C168.59090788 54.95734033 167.92299187 56.29109065 167.2902832 57.64086914 C165.96434216 58.00248943 164.63089863 58.33814953 163.2902832 58.64086914 C162.9602832 59.63086914 162.6302832 60.62086914 162.2902832 61.64086914 C160.95694987 61.97420247 159.62361654 62.30753581 158.2902832 62.64086914 C157.9602832 63.63086914 157.6302832 64.62086914 157.2902832 65.64086914 C156.6715332 65.76461914 156.0527832 65.88836914 155.4152832 66.01586914 C153.01405053 66.46141872 153.01405053 66.46141872 151.7902832 69.14086914 C150.2902832 71.64086914 150.2902832 71.64086914 148.42248541 72.13768429 C147.36704532 72.38676079 147.36704532 72.38676079 146.2902832 72.64086914 C139.82302602 76.64107295 132.90807583 82.85589 130.43341184 90.17525554 C129.13294743 97.1289761 129.46972309 104.1534639 129.67919922 111.19140625 C129.6933166 113.53838652 129.70077171 115.88541479 129.70211792 118.23243713 C129.72442227 124.56399502 129.83916562 130.89081219 129.97130322 137.2209022 C130.08129731 143.177869 130.12116091 149.13497702 130.16165542 155.09275991 C130.24404062 166.88191197 130.39348482 178.66919953 130.5859375 190.45703125 C130.77257974 201.89788265 130.92711806 213.33843685 131.0390625 224.78027344 C131.04599035 225.48723753 131.0529182 226.19420163 131.06005598 226.92258888 C131.09461982 230.46973344 131.12855858 234.01688366 131.16218674 237.5640372 C131.4413392 266.92440736 131.83080687 296.28276832 132.2902832 325.64086914 C133.2802832 325.64086914 134.2702832 325.64086914 135.2902832 325.64086914 C135.2902832 324.98086914 135.2902832 324.32086914 135.2902832 323.64086914 C136.6102832 323.31086914 137.9302832 322.98086914 139.2902832 322.64086914 C139.2902832 321.98086914 139.2902832 321.32086914 139.2902832 320.64086914 C141.08325195 319.16821289 141.08325195 319.16821289 143.4777832 317.57836914 C144.25508789 317.05114258 145.03239258 316.52391602 145.83325195 315.98071289 C148.36013827 314.60277647 150.45671275 314.04854091 153.2902832 313.64086914 C153.2902832 312.98086914 153.2902832 312.32086914 153.2902832 311.64086914 C154.9402832 311.31086914 156.5902832 310.98086914 158.2902832 310.64086914 C158.2902832 309.98086914 158.2902832 309.32086914 158.2902832 308.64086914 C159.6205957 308.20774414 159.6205957 308.20774414 160.9777832 307.76586914 C166.53239714 306.34906232 166.53239714 306.34906232 170.2902832 302.64086914 C173.3527832 302.01586914 173.3527832 302.01586914 176.2902832 301.64086914 C176.2902832 300.98086914 176.2902832 300.32086914 176.2902832 299.64086914 C178.2702832 299.31086914 180.2502832 298.98086914 182.2902832 298.64086914 C182.2902832 297.98086914 182.2902832 297.32086914 182.2902832 296.64086914 C184.6002832 296.31086914 186.9102832 295.98086914 189.2902832 295.64086914 C189.2902832 294.98086914 189.2902832 294.32086914 189.2902832 293.64086914 C190.42916992 293.47651367 190.42916992 293.47651367 191.59106445 293.30883789 C193.08186523 293.07100586 193.08186523 293.07100586 194.6027832 292.82836914 C195.58891602 292.67754883 196.57504883 292.52672852 197.59106445 292.37133789 C200.52696139 291.57681875 201.23248219 290.73791977 203.2902832 288.64086914 C205.5168457 288.19946289 205.5168457 288.19946289 207.9152832 288.07836914 C210.26170162 287.99445792 210.26170162 287.99445792 212.2902832 287.64086914 C212.6202832 286.98086914 212.9502832 286.32086914 213.2902832 285.64086914 C215.1105957 285.29711914 215.1105957 285.29711914 217.4152832 285.14086914 C221.61207191 284.77155173 225.28247127 283.91995805 229.2902832 282.64086914 C229.2902832 281.98086914 229.2902832 281.32086914 229.2902832 280.64086914 C230.53165039 280.68856445 231.77301758 280.73625977 233.05200195 280.78540039 C238.91602615 280.78197181 244.39093523 279.55473522 250.1027832 278.32836914 C264.08085258 275.47566075 278.09428913 273.93095159 292.2902832 272.64086914 C295.9202832 272.31086914 299.5502832 271.98086914 303.2902832 271.64086914 C303.2902832 185.84086914 303.2902832 100.04086914 303.2902832 11.64086914 C285.58946942 10.1710875 285.58946942 10.1710875 268.2902832 12.64086914 Z M-60.7097168 11.64086914 C-60.7097168 97.44086914 -60.7097168 183.24086914 -60.7097168 271.64086914 C-45.3647168 273.12586914 -45.3647168 273.12586914 -29.7097168 274.64086914 C-24.51917803 275.3386593 -19.41689801 276.04643567 -14.2722168 276.95336914 C-13.06122314 277.15921631 -11.85022949 277.36506348 -10.60253906 277.57714844 C-1.34178862 279.21004315 7.76722717 281.31019453 16.84472656 283.76123047 C18.21189819 284.12897583 18.21189819 284.12897583 19.60668945 284.50415039 C20.78920288 284.83346558 20.78920288 284.83346558 21.99560547 285.16943359 C24.48191029 285.68023842 26.75887646 285.72234678 29.2902832 285.64086914 C29.6202832 286.30086914 29.9502832 286.96086914 30.2902832 287.64086914 C32.64733787 288.42655403 34.95094534 288.73336184 37.4152832 289.07836914 C40.2902832 289.64086914 40.2902832 289.64086914 42.2902832 291.64086914 C43.2184082 291.64086914 44.1465332 291.64086914 45.1027832 291.64086914 C48.38415726 291.64086914 50.35280117 292.25852465 53.2902832 293.64086914 C53.2902832 294.30086914 53.2902832 294.96086914 53.2902832 295.64086914 C53.89356445 295.75043945 54.4968457 295.86000977 55.1184082 295.97290039 C59.5746392 296.85695912 62.82076124 297.55684962 66.2902832 300.64086914 C68.62790993 301.91593826 70.75059839 302.79430754 73.2902832 303.64086914 C73.7234082 304.13586914 74.1565332 304.63086914 74.6027832 305.14086914 C76.95870148 307.23501872 79.22562886 307.18443126 82.2902832 307.64086914 C84.2902832 309.64086914 84.2902832 309.64086914 85.2902832 311.64086914 C86.34989258 311.83036133 86.34989258 311.83036133 87.4309082 312.02368164 C91.09010561 312.8135084 93.91041048 314.55354444 97.0402832 316.51586914 C97.92393555 317.04374023 97.92393555 317.04374023 98.82543945 317.58227539 C103.16533599 320.2660275 103.16533599 320.2660275 104.2902832 323.64086914 C105.2802832 323.97086914 106.2702832 324.30086914 107.2902832 324.64086914 C107.9502832 325.30086914 108.6102832 325.96086914 109.2902832 326.64086914 C111.43579871 324.49535363 110.51737113 319.56889836 110.5561676 316.59288025 C110.57239463 315.63142942 110.58862166 314.66997858 110.60534042 313.67939287 C110.6585103 310.43085222 110.70414284 307.18225212 110.74951172 303.93359375 C110.78525774 301.61460546 110.8212227 299.29562053 110.85739136 296.97663879 C111.17896251 275.74998072 111.39908029 254.52186764 111.59256077 233.29369259 C111.61873782 230.44904779 111.64518578 227.60440566 111.671875 224.75976562 C111.67849708 224.05276178 111.68511916 223.34575793 111.69194191 222.61732972 C111.80065331 211.19445818 111.96904536 199.77323965 112.16066886 188.35149126 C112.35636973 176.61311974 112.49038051 164.87521508 112.5673365 153.13545805 C112.61305994 146.54840984 112.68630617 139.96436905 112.82733345 133.37861443 C112.95921718 127.17017481 113.0140812 120.96563643 113.01189804 114.75584221 C113.02424389 112.48691424 113.06376866 110.2179316 113.13365364 107.95004654 C113.4562678 96.99544101 113.35632151 88.73847251 105.63976759 80.37006718 C100.10314178 74.59987944 100.10314178 74.59987944 93.14469343 71.12032074 C91.2902832 70.64086914 91.2902832 70.64086914 89.7902832 68.20336914 C89.2952832 67.35774414 88.8002832 66.51211914 88.2902832 65.64086914 C86.32355405 64.49078604 86.32355405 64.49078604 84.2902832 63.64086914 C83.27087131 62.66066539 82.26781964 61.66283906 81.2902832 60.64086914 C80.6302832 60.31086914 79.9702832 59.98086914 79.2902832 59.64086914 C78.6302832 58.98086914 77.9702832 58.32086914 77.2902832 57.64086914 C76.51555664 57.33407227 75.74083008 57.02727539 74.94262695 56.71118164 C72.19936882 55.60418204 70.21901211 54.2792633 67.8527832 52.51586914 C63.05703541 49.05307844 58.06670808 46.16208309 52.84912109 43.39428711 C48.39703893 40.96113634 48.39703893 40.96113634 47.2902832 37.64086914 C46.51040039 37.56610352 45.73051758 37.49133789 44.92700195 37.41430664 C39.98794206 36.36389433 35.67997585 34.3605728 31.1027832 32.26586914 C29.75023437 31.66645508 29.75023437 31.66645508 28.37036133 31.05493164 C24.37529573 29.24629435 21.36631514 27.78501123 18.2902832 24.64086914 C16.1152604 24.17685394 16.1152604 24.17685394 13.7902832 24.14086914 C9.61468377 23.97384516 9.61468377 23.97384516 7.88647461 22.19995117 C5.22691531 19.60222317 1.6643946 18.99139493 -1.8347168 18.01586914 C-2.60009766 17.79713135 -3.36547852 17.57839355 -4.15405273 17.35302734 C-11.01071159 15.44945217 -17.553168 14.41001273 -24.7097168 14.64086914 C-25.2047168 13.65086914 -25.2047168 13.65086914 -25.7097168 12.64086914 C-37.46871624 9.548405 -48.64165587 10.77886479 -60.7097168 11.64086914 Z M-24.7097168 13.64086914 C-20.7097168 14.64086914 -20.7097168 14.64086914 -20.7097168 14.64086914 Z M-95.7097168 38.64086914 C-95.7097168 138.30086914 -95.7097168 237.96086914 -95.7097168 340.64086914 C-95.3797168 340.64086914 -95.0497168 340.64086914 -94.7097168 340.64086914 C-94.7097168 240.98086914 -94.7097168 141.32086914 -94.7097168 38.64086914 C-95.0397168 38.64086914 -95.3697168 38.64086914 -95.7097168 38.64086914 Z M-93.7097168 38.64086914 C-93.7097168 38.97086914 -93.7097168 39.30086914 -93.7097168 39.64086914 C-90.0797168 39.64086914 -86.4497168 39.64086914 -82.7097168 39.64086914 C-82.7097168 39.31086914 -82.7097168 38.98086914 -82.7097168 38.64086914 C-86.3397168 38.64086914 -89.9697168 38.64086914 -93.7097168 38.64086914 Z M325.2902832 38.64086914 C325.2902832 38.97086914 325.2902832 39.30086914 325.2902832 39.64086914 C328.9202832 39.64086914 332.5502832 39.64086914 336.2902832 39.64086914 C336.2902832 39.31086914 336.2902832 38.98086914 336.2902832 38.64086914 C332.6602832 38.64086914 329.0302832 38.64086914 325.2902832 38.64086914 Z M337.2902832 38.64086914 C337.2902832 138.30086914 337.2902832 237.96086914 337.2902832 340.64086914 C337.6202832 340.64086914 337.9502832 340.64086914 338.2902832 340.64086914 C338.2902832 240.98086914 338.2902832 141.32086914 338.2902832 38.64086914 C337.9602832 38.64086914 337.6302832 38.64086914 337.2902832 38.64086914 Z M-81.7097168 37.64086914 C-82.0397168 38.63086914 -82.3697168 39.62086914 -82.7097168 40.64086914 C-86.3397168 40.64086914 -89.9697168 40.64086914 -93.7097168 40.64086914 C-93.7097168 138.98086914 -93.7097168 237.32086914 -93.7097168 338.64086914 C-38.46026176 341.15497512 -38.46026176 341.15497512 16.2902832 337.64086914 C16.2902832 337.31086914 16.2902832 336.98086914 16.2902832 336.64086914 C6.4856065 335.07079143 -3.31985755 333.50573659 -13.12635231 331.947052 C-17.68009077 331.22310115 -22.23354221 330.49743667 -26.78637695 329.76782227 C-31.18181731 329.06349629 -35.57795957 328.3637158 -39.97462082 327.66705322 C-41.6501572 327.40074723 -43.32543626 327.13281685 -45.00044632 326.86322021 C-47.35029993 326.48529322 -49.70101013 326.11320264 -52.05200195 325.74243164 C-52.74108643 325.63022278 -53.4301709 325.51801392 -54.14013672 325.40240479 C-58.03480276 324.79528813 -61.76965365 324.53328411 -65.7097168 324.64086914 C-65.7097168 324.31086914 -65.7097168 323.98086914 -65.7097168 323.64086914 C-69.6697168 323.31086914 -73.6297168 322.98086914 -77.7097168 322.64086914 C-79.60122149 317.9121074 -80.73345082 314.61902672 -79.7097168 309.64086914 C-77.2722168 306.64086914 -77.2722168 306.64086914 -74.7097168 304.64086914 C-72.17598672 304.64086914 -69.51676945 305.3254953 -67.0378418 305.74243164 C-65.59082653 305.98514452 -64.14380474 306.22781844 -62.69677734 306.47045898 C-61.92538422 306.60007019 -61.15399109 306.7296814 -60.35922241 306.86322021 C-55.42319615 307.69150987 -50.48593832 308.51242844 -45.54890442 309.33468628 C-44.69076645 309.47762115 -43.83262848 309.62055603 -42.94848633 309.76782227 C-41.65337128 309.98353882 -41.65337128 309.98353882 -40.33209229 310.20361328 C-37.71806909 310.63947648 -35.10425927 311.07660155 -32.49047852 311.51391602 C-28.2692392 312.21960218 -24.04702169 312.91916046 -19.82409668 313.61468506 C-18.21544435 313.8806091 -16.60712082 314.14853046 -14.99914551 314.41851807 C-12.74074552 314.79739089 -10.48127741 315.16914516 -8.22143555 315.53930664 C-6.93712646 315.75248535 -5.65281738 315.96566406 -4.32958984 316.18530273 C-0.74713372 316.63616016 2.68387981 316.72279984 6.2902832 316.64086914 C6.2902832 316.97086914 6.2902832 317.30086914 6.2902832 317.64086914 C13.20647582 318.81787555 20.12606339 319.97309354 27.04833984 321.11376953 C29.39909629 321.50370543 31.74905503 321.89848435 34.09814453 322.29833984 C37.48959536 322.87473537 40.88360521 323.43321555 44.27856445 323.98852539 C45.83393669 324.25875267 45.83393669 324.25875267 47.42073059 324.53443909 C54.2574286 325.62973569 60.43343362 325.59766706 67.2902832 324.64086914 C64.3992271 321.54660782 61.13016447 319.89104436 57.3527832 318.07836914 C56.42175781 317.62300781 56.42175781 317.62300781 55.47192383 317.15844727 C53.74671762 316.3151356 52.01859424 315.47779922 50.2902832 314.64086914 C49.54649414 314.2605957 48.80270508 313.88032227 48.03637695 313.48852539 C46.12304745 312.51299672 46.12304745 312.51299672 43.2902832 311.64086914 C42.6302832 310.98086914 41.9702832 310.32086914 41.2902832 309.64086914 C39.8980957 309.70274414 39.8980957 309.70274414 38.4777832 309.76586914 C34.44027525 309.6075355 33.37786832 308.12599863 30.2902832 305.64086914 C27.96753144 305.2403947 25.63288963 304.90115874 23.2902832 304.64086914 C22.3002832 303.98086914 21.3102832 303.32086914 20.2902832 302.64086914 C18.68335413 302.67434683 17.07641645 302.71025326 15.4699707 302.76196289 C10.97447916 302.51221336 6.49163914 301.22546359 2.2902832 299.64086914 C1.9602832 298.98086914 1.6302832 298.32086914 1.2902832 297.64086914 C-0.87574877 296.93407352 -0.87574877 296.93407352 -3.5456543 296.45727539 C-5.09119995 296.15128418 -5.09119995 296.15128418 -6.66796875 295.83911133 C-7.79549561 295.62931641 -8.92302246 295.41952148 -10.0847168 295.20336914 C-11.25284912 294.98455078 -12.42098145 294.76573242 -13.62451172 294.5402832 C-35.9315374 290.50154378 -57.96855974 289.42504697 -80.7097168 288.64086914 C-80.7097168 205.81086914 -80.7097168 122.98086914 -80.7097168 37.64086914 C-81.0397168 37.64086914 -81.3697168 37.64086914 -81.7097168 37.64086914 Z M323.2902832 37.64086914 C323.2902832 120.47086914 323.2902832 203.30086914 323.2902832 288.64086914 C313.7202832 288.97086914 304.1502832 289.30086914 294.2902832 289.64086914 C280.24320737 290.92370712 266.51199996 292.60955697 252.6652832 295.20336914 C251.53775635 295.41316406 250.41022949 295.62295898 249.24853516 295.83911133 C248.21817139 296.04310547 247.18780762 296.24709961 246.1262207 296.45727539 C245.21404785 296.63718018 244.301875 296.81708496 243.36206055 297.00244141 C242.33653076 297.31846313 242.33653076 297.31846313 241.2902832 297.64086914 C240.9602832 298.30086914 240.6302832 298.96086914 240.2902832 299.64086914 C238.08714613 300.47654182 236.81549849 300.82226404 234.55981445 300.04321289 C231.2719167 299.46033257 228.93561834 300.46982878 225.7902832 301.51586914 C222.30211388 302.65992467 218.85927211 303.7824041 215.2902832 304.64086914 C211.67688069 305.84009067 211.67688069 305.84009067 208.8527832 308.26586914 C207.2902832 309.64086914 207.2902832 309.64086914 204.6652832 309.57836914 C199.99868145 309.66478769 196.31990959 311.34590097 192.2902832 313.64086914 C191.85458008 314.10493164 191.41887695 314.56899414 190.9699707 315.04711914 C188.40230022 317.48342043 185.26207339 318.81051558 182.1027832 320.32836914 C181.44858398 320.64870117 180.79438477 320.9690332 180.12036133 321.29907227 C178.51300414 322.08515206 176.90199463 322.86375597 175.2902832 323.64086914 C175.2902832 323.97086914 175.2902832 324.30086914 175.2902832 324.64086914 C183.28338951 325.75054836 190.33593858 325.38169622 198.2668457 324.02368164 C199.35871185 323.84707001 200.450578 323.67045837 201.57553101 323.48849487 C203.86055483 323.11640284 206.14454551 322.73791386 208.42749023 322.35327148 C211.938197 321.76201008 215.45163968 321.19004194 218.96606445 320.62133789 C221.19150567 320.25655375 223.41677304 319.89070714 225.6418457 319.52368164 C226.69586578 319.35071564 227.74988586 319.17774963 228.83584595 318.99954224 C229.80130341 318.83622406 230.76676086 318.67290588 231.76147461 318.50463867 C232.61432037 318.36172394 233.46716614 318.2188092 234.34585571 318.07156372 C236.28570059 317.82460324 236.28570059 317.82460324 237.2902832 316.64086914 C239.18160826 316.4290878 241.07913674 316.27164922 242.9777832 316.14086914 C250.12955748 316.1824444 250.12955748 316.1824444 256.2902832 313.64086914 C257.84008131 313.48414798 259.3951559 313.3799812 260.95043945 313.29321289 C269.94577181 312.60987134 278.81757825 311.11267952 287.71972656 309.68457031 C290.74404194 309.20076822 293.76996195 308.72808113 296.79614258 308.25610352 C298.73049326 307.94882669 300.66474197 307.64090702 302.59887695 307.33227539 C303.94736977 307.12279015 303.94736977 307.12279015 305.32310486 306.90907288 C309.55370387 306.22173371 313.3785692 305.48757727 317.2902832 303.64086914 C317.2902832 304.30086914 317.2902832 304.96086914 317.2902832 305.64086914 C318.1152832 306.17711914 318.9402832 306.71336914 319.7902832 307.26586914 C322.2902832 309.64086914 322.2902832 309.64086914 322.7277832 313.57836914 C322.61399273 316.94522854 321.56709823 319.5444092 320.2902832 322.64086914 C319.62796692 322.68146957 318.96565063 322.72207001 318.28326416 322.76390076 C308.99550441 323.42751502 299.89259389 324.86647358 290.7121582 326.36352539 C289.04785406 326.63153395 287.38348516 326.89914067 285.71905518 327.16636658 C281.37843768 327.86434641 277.03871055 328.56771319 272.69915771 329.27227783 C268.25480617 329.99285389 263.80961826 330.70823189 259.36450195 331.42407227 C250.67227764 332.82463909 241.98098871 334.23090873 233.2902832 335.64086914 C232.9602832 336.63086914 232.6302832 337.62086914 232.2902832 338.64086914 C266.6102832 338.64086914 300.9302832 338.64086914 336.2902832 338.64086914 C336.2902832 240.30086914 336.2902832 141.96086914 336.2902832 40.64086914 C332.6602832 40.64086914 329.0302832 40.64086914 325.2902832 40.64086914 C324.3002832 39.15586914 324.3002832 39.15586914 323.2902832 37.64086914 Z M111.2902832 88.64086914 C111.2902832 167.84086914 111.2902832 247.04086914 111.2902832 328.64086914 C111.6202832 328.64086914 111.9502832 328.64086914 112.2902832 328.64086914 C112.2902832 249.44086914 112.2902832 170.24086914 112.2902832 88.64086914 C111.9602832 88.64086914 111.6302832 88.64086914 111.2902832 88.64086914 Z M130.2902832 88.64086914 C130.2902832 167.84086914 130.2902832 247.04086914 130.2902832 328.64086914 C130.6202832 328.64086914 130.9502832 328.64086914 131.2902832 328.64086914 C131.2902832 249.44086914 131.2902832 170.24086914 131.2902832 88.64086914 C130.9602832 88.64086914 130.6302832 88.64086914 130.2902832 88.64086914 Z M6.2902832 299.64086914 C10.2902832 300.64086914 10.2902832 300.64086914 10.2902832 300.64086914 Z M68.2902832 324.64086914 C66.3102832 324.97086914 64.3302832 325.30086914 62.2902832 325.64086914 C62.2902832 325.97086914 62.2902832 326.30086914 62.2902832 326.64086914 C66.2502832 326.97086914 70.2102832 327.30086914 74.2902832 327.64086914 C74.2902832 327.31086914 74.2902832 326.98086914 74.2902832 326.64086914 C72.6402832 326.64086914 70.9902832 326.64086914 69.2902832 326.64086914 C68.9602832 325.98086914 68.6302832 325.32086914 68.2902832 324.64086914 Z M174.2902832 325.64086914 C174.2902832 325.97086914 174.2902832 326.30086914 174.2902832 326.64086914 C176.2702832 326.64086914 178.2502832 326.64086914 180.2902832 326.64086914 C180.2902832 326.31086914 180.2902832 325.98086914 180.2902832 325.64086914 C178.3102832 325.64086914 176.3302832 325.64086914 174.2902832 325.64086914 Z M75.2902832 326.64086914 C76.2902832 328.64086914 76.2902832 328.64086914 76.2902832 328.64086914 Z M166.2902832 326.64086914 C167.2902832 328.64086914 167.2902832 328.64086914 167.2902832 328.64086914 Z M168.2902832 326.64086914 C168.2902832 326.97086914 168.2902832 327.30086914 168.2902832 327.64086914 C170.2702832 327.64086914 172.2502832 327.64086914 174.2902832 327.64086914 C174.2902832 327.31086914 174.2902832 326.98086914 174.2902832 326.64086914 C172.3102832 326.64086914 170.3302832 326.64086914 168.2902832 326.64086914 Z M226.2902832 336.64086914 C226.2902832 336.97086914 226.2902832 337.30086914 226.2902832 337.64086914 C228.2702832 337.64086914 230.2502832 337.64086914 232.2902832 337.64086914 C232.2902832 337.31086914 232.2902832 336.98086914 232.2902832 336.64086914 C230.3102832 336.64086914 228.3302832 336.64086914 226.2902832 336.64086914 Z M16.2902832 337.64086914 C16.2902832 337.97086914 16.2902832 338.30086914 16.2902832 338.64086914 C18.2702832 338.64086914 20.2502832 338.64086914 22.2902832 338.64086914 C22.2902832 338.31086914 22.2902832 337.98086914 22.2902832 337.64086914 C20.3102832 337.64086914 18.3302832 337.64086914 16.2902832 337.64086914 Z M220.2902832 337.64086914 C220.2902832 337.97086914 220.2902832 338.30086914 220.2902832 338.64086914 C222.2702832 338.64086914 224.2502832 338.64086914 226.2902832 338.64086914 C226.2902832 338.31086914 226.2902832 337.98086914 226.2902832 337.64086914 C224.3102832 337.64086914 222.3302832 337.64086914 220.2902832 337.64086914 Z M11.07421875 338.61914062 C9.3596196 338.63355194 9.3596196 338.63355194 7.61038208 338.64825439 C3.88251866 338.68088226 0.15478617 338.72134914 -3.57299805 338.76196289 C-6.17758237 338.78629953 -8.78217135 338.81014123 -11.38676453 338.83351135 C-17.50980134 338.88927701 -23.63276735 338.95069874 -29.75572795 339.0142327 C-36.7352992 339.08637373 -43.71492655 339.15208742 -50.69456542 339.21730316 C-65.03302163 339.35141939 -79.37139126 339.4934709 -93.7097168 339.64086914 C-93.7097168 339.97086914 -93.7097168 340.30086914 -93.7097168 340.64086914 C-50.8097168 340.64086914 -7.9097168 340.64086914 36.2902832 340.64086914 C36.2902832 340.31086914 36.2902832 339.98086914 36.2902832 339.64086914 C27.85801873 338.87951699 19.5382554 338.51451371 11.07421875 338.61914062 Z M206.2902832 339.64086914 C206.2902832 339.97086914 206.2902832 340.30086914 206.2902832 340.64086914 C249.1902832 340.64086914 292.0902832 340.64086914 336.2902832 340.64086914 C336.2902832 340.31086914 336.2902832 339.98086914 336.2902832 339.64086914 C320.52168087 339.48669233 304.75303345 339.33866778 288.98430634 339.19790554 C281.66211446 339.13240033 274.33995115 339.06490533 267.01782227 338.99267578 C260.63358493 338.92970322 254.24932545 338.87051529 247.86501169 338.8158136 C244.48664948 338.7867367 241.10832789 338.75580437 237.73002625 338.72033501 C233.95261137 338.68162802 230.17519415 338.64961017 226.39770508 338.61914062 C225.28567719 338.60619461 224.17364929 338.5932486 223.02792358 338.57991028 C217.34124671 338.54132679 211.91324528 338.77636174 206.2902832 339.64086914 Z " fill="#000000" transform="translate(134.709716796875,73.359130859375)"/>
<path d="M0 0 C0.33 0 0.66 0 1 0 C1 111.54 1 223.08 1 338 C0.67 338 0.34 338 0 338 C0 226.46 0 114.92 0 0 Z " fill="#000000" transform="translate(492,94)"/>
<path d="M0 0 C0.33 0 0.66 0 1 0 C1 111.54 1 223.08 1 338 C0.67 338 0.34 338 0 338 C0 226.46 0 114.92 0 0 Z " fill="#000000" transform="translate(19,94)"/>
<path d="M0 0 C6.6 0 13.2 0 20 0 C20 0.33 20 0.66 20 1 C13.4 1 6.8 1 0 1 C0 0.67 0 0.34 0 0 Z " fill="#000000" transform="translate(246,449)"/>
<path d="M0 0 C6.6 0 13.2 0 20 0 C20 0.33 20 0.66 20 1 C13.4 1 6.8 1 0 1 C0 0.67 0 0.34 0 0 Z " fill="#000000" transform="translate(430,364)"/>
<path d="M0 0 C6.6 0 13.2 0 20 0 C20 0.33 20 0.66 20 1 C13.4 1 6.8 1 0 1 C0 0.67 0 0.34 0 0 Z " fill="#000000" transform="translate(62,364)"/>
<path d="M0 0 C0 0.33 0 0.66 0 1 C-7.92 1.495 -7.92 1.495 -16 2 C-16 1.67 -16 1.34 -16 1 C-10.63904667 -0.12862175 -5.44693314 -0.09688221 0 0 Z " fill="#000000" transform="translate(422,64)"/>
<path d="M0 0 C5.44693314 -0.09688221 10.63904667 -0.12862175 16 1 C16 1.33 16 1.66 16 2 C10.72 1.67 5.44 1.34 0 1 C0 0.67 0 0.34 0 0 Z " fill="#000000" transform="translate(90,64)"/>
<path d="M0 0 C4.62 0 9.24 0 14 0 C14 0.33 14 0.66 14 1 C9.38 1 4.76 1 0 1 C0 0.67 0 0.34 0 0 Z " fill="#000000" transform="translate(422,63)"/>
<path d="M0 0 C4.62 0 9.24 0 14 0 C14 0.33 14 0.66 14 1 C9.38 1 4.76 1 0 1 C0 0.67 0 0.34 0 0 Z " fill="#000000" transform="translate(76,63)"/>
<path d="M0 0 C0 0.33 0 0.66 0 1 C-5.94 1.495 -5.94 1.495 -12 2 C-12 1.67 -12 1.34 -12 1 C-7.9472484 0.01751476 -4.16138263 -0.08159574 0 0 Z " fill="#000000" transform="translate(384,387)"/>
<path d="M0 0 C4.16138263 -0.08159574 7.9472484 0.01751476 12 1 C12 1.33 12 1.66 12 2 C8.04 1.67 4.08 1.34 0 1 C0 0.67 0 0.34 0 0 Z " fill="#000000" transform="translate(128,387)"/>
<path d="M0 0 C4.29 0 8.58 0 13 0 C13 0.33 13 0.66 13 1 C8.71 1 4.42 1 0 1 C0 0.67 0 0.34 0 0 Z " fill="#000000" transform="translate(436,62)"/>
<path d="M0 0 C4.29 0 8.58 0 13 0 C13 0.33 13 0.66 13 1 C8.71 1 4.42 1 0 1 C0 0.67 0 0.34 0 0 Z " fill="#000000" transform="translate(63,62)"/>
<path d="M0 0 C3.96 0 7.92 0 12 0 C12 0.33 12 0.66 12 1 C8.04 1 4.08 1 0 1 C0 0.67 0 0.34 0 0 Z " fill="#000000" transform="translate(82,365)"/>
<path d="M0 0 C3.63 0 7.26 0 11 0 C11 0.33 11 0.66 11 1 C7.37 1 3.74 1 0 1 C0 0.67 0 0.34 0 0 Z " fill="#000000" transform="translate(419,365)"/>
<path d="M0 0 C3.63 0 7.26 0 11 0 C11 0.33 11 0.66 11 1 C7.37 1 3.74 1 0 1 C0 0.67 0 0.34 0 0 Z " fill="#000000" transform="translate(415,344)"/>
<path d="M0 0 C3.63 0 7.26 0 11 0 C11 0.33 11 0.66 11 1 C7.37 1 3.74 1 0 1 C0 0.67 0 0.34 0 0 Z " fill="#000000" transform="translate(86,344)"/>
<path d="M0 0 C2.97 0 5.94 0 9 0 C9 0.33 9 0.66 9 1 C6.03 1 3.06 1 0 1 C0 0.67 0 0.34 0 0 Z " fill="#000000" transform="translate(409,366)"/>
<path d="M0 0 C2.97 0 5.94 0 9 0 C9 0.33 9 0.66 9 1 C6.03 1 3.06 1 0 1 C0 0.67 0 0.34 0 0 Z " fill="#000000" transform="translate(94,366)"/>
<path d="M0 0 C0.33 0 0.66 0 1 0 C1 2.64 1 5.28 1 8 C0.67 8 0.34 8 0 8 C0 5.36 0 2.72 0 0 Z " fill="#000000" transform="translate(459,383)"/>
<path d="M0 0 C0.33 0 0.66 0 1 0 C1 2.64 1 5.28 1 8 C0.67 8 0.34 8 0 8 C0 5.36 0 2.72 0 0 Z " fill="#000000" transform="translate(52,383)"/>
<path d="M0 0 C2.64 0 5.28 0 8 0 C8 0.33 8 0.66 8 1 C5.36 1 2.72 1 0 1 C0 0.67 0 0.34 0 0 Z " fill="#000000" transform="translate(399,346)"/>
<path d="M0 0 C2.64 0 5.28 0 8 0 C8 0.33 8 0.66 8 1 C5.36 1 2.72 1 0 1 C0 0.67 0 0.34 0 0 Z " fill="#000000" transform="translate(105,346)"/>
<path d="M0 0 C2.64 0 5.28 0 8 0 C8 0.33 8 0.66 8 1 C5.36 1 2.72 1 0 1 C0 0.67 0 0.34 0 0 Z " fill="#000000" transform="translate(407,345)"/>
<path d="M0 0 C2.64 0 5.28 0 8 0 C8 0.33 8 0.66 8 1 C5.36 1 2.72 1 0 1 C0 0.67 0 0.34 0 0 Z " fill="#000000" transform="translate(97,345)"/>
<path d="M0 0 C2.64 0 5.28 0 8 0 C8 0.33 8 0.66 8 1 C5.36 1 2.72 1 0 1 C0 0.67 0 0.34 0 0 Z " fill="#000000" transform="translate(408,86)"/>
<path d="M0 0 C2.64 0 5.28 0 8 0 C8 0.33 8 0.66 8 1 C5.36 1 2.72 1 0 1 C0 0.67 0 0.34 0 0 Z " fill="#000000" transform="translate(96,86)"/>
<path d="M0 0 C2.64 0 5.28 0 8 0 C8 0.33 8 0.66 8 1 C5.36 1 2.72 1 0 1 C0 0.67 0 0.34 0 0 Z " fill="#000000" transform="translate(416,85)"/>
<path d="M0 0 C2.64 0 5.28 0 8 0 C8 0.33 8 0.66 8 1 C5.36 1 2.72 1 0 1 C0 0.67 0 0.34 0 0 Z " fill="#000000" transform="translate(88,85)"/>
<path d="M0 0 C2.64 0 5.28 0 8 0 C8 0.33 8 0.66 8 1 C5.36 1 2.72 1 0 1 C0 0.67 0 0.34 0 0 Z " fill="#000000" transform="translate(450,63)"/>
<path d="M0 0 C2.64 0 5.28 0 8 0 C8 0.33 8 0.66 8 1 C5.36 1 2.72 1 0 1 C0 0.67 0 0.34 0 0 Z " fill="#000000" transform="translate(54,63)"/>
<path d="M0 0 C2.31 0 4.62 0 7 0 C7 0.33 7 0.66 7 1 C4.69 1 2.38 1 0 1 C0 0.67 0 0.34 0 0 Z " fill="#000000" transform="translate(94,403)"/>
<path d="M0 0 C2.31 0 4.62 0 7 0 C7 0.33 7 0.66 7 1 C4.69 1 2.38 1 0 1 C0 0.67 0 0.34 0 0 Z " fill="#000000" transform="translate(430,400)"/>
<path d="M0 0 C2.31 0 4.62 0 7 0 C7 0.33 7 0.66 7 1 C4.69 1 2.38 1 0 1 C0 0.67 0 0.34 0 0 Z " fill="#000000" transform="translate(75,400)"/>
<path d="M0 0 C2.31 0 4.62 0 7 0 C7 0.33 7 0.66 7 1 C4.69 1 2.38 1 0 1 C0 0.67 0 0.34 0 0 Z " fill="#000000" transform="translate(396,384)"/>
<path d="M0 0 C2.31 0 4.62 0 7 0 C7 0.33 7 0.66 7 1 C4.69 1 2.38 1 0 1 C0 0.67 0 0.34 0 0 Z " fill="#000000" transform="translate(109,384)"/>
<path d="M0 0 C2.31 0 4.62 0 7 0 C7 0.33 7 0.66 7 1 C4.69 1 2.38 1 0 1 C0 0.67 0 0.34 0 0 Z " fill="#000000" transform="translate(415,381)"/>
<path d="M0 0 C2.31 0 4.62 0 7 0 C7 0.33 7 0.66 7 1 C4.69 1 2.38 1 0 1 C0 0.67 0 0.34 0 0 Z " fill="#000000" transform="translate(90,381)"/>
<path d="M0 0 C2.31 0 4.62 0 7 0 C7 0.33 7 0.66 7 1 C4.69 1 2.38 1 0 1 C0 0.67 0 0.34 0 0 Z " fill="#000000" transform="translate(434,378)"/>
<path d="M0 0 C2.31 0 4.62 0 7 0 C7 0.33 7 0.66 7 1 C4.69 1 2.38 1 0 1 C0 0.67 0 0.34 0 0 Z " fill="#000000" transform="translate(71,378)"/>
<path d="M0 0 C2.31 0 4.62 0 7 0 C7 0.33 7 0.66 7 1 C4.69 1 2.38 1 0 1 C0 0.67 0 0.34 0 0 Z " fill="#000000" transform="translate(402,367)"/>
<path d="M0 0 C2.31 0 4.62 0 7 0 C7 0.33 7 0.66 7 1 C4.69 1 2.38 1 0 1 C0 0.67 0 0.34 0 0 Z " fill="#000000" transform="translate(103,367)"/>
<path d="M0 0 C2.31 0 4.62 0 7 0 C7 0.33 7 0.66 7 1 C4.69 1 2.38 1 0 1 C0 0.67 0 0.34 0 0 Z " fill="#000000" transform="translate(451,363)"/>
<path d="M0 0 C2.31 0 4.62 0 7 0 C7 0.33 7 0.66 7 1 C4.69 1 2.38 1 0 1 C0 0.67 0 0.34 0 0 Z " fill="#000000" transform="translate(54,363)"/>
<path d="M0 0 C1.98 0 3.96 0 6 0 C6 0.33 6 0.66 6 1 C4.02 1 2.04 1 0 1 C0 0.67 0 0.34 0 0 Z " fill="#000000" transform="translate(139,410)"/>
<path d="M0 0 C1.98 0 3.96 0 6 0 C6 0.33 6 0.66 6 1 C4.02 1 2.04 1 0 1 C0 0.67 0 0.34 0 0 Z " fill="#000000" transform="translate(374,409)"/>
<path d="M0 0 C1.98 0 3.96 0 6 0 C6 0.33 6 0.66 6 1 C4.02 1 2.04 1 0 1 C0 0.67 0 0.34 0 0 Z " fill="#000000" transform="translate(132,409)"/>
<path d="M0 0 C1.98 0 3.96 0 6 0 C6 0.33 6 0.66 6 1 C4.02 1 2.04 1 0 1 C0 0.67 0 0.34 0 0 Z " fill="#000000" transform="translate(380,408)"/>
<path d="M0 0 C1.98 0 3.96 0 6 0 C6 0.33 6 0.66 6 1 C4.02 1 2.04 1 0 1 C0 0.67 0 0.34 0 0 Z " fill="#000000" transform="translate(126,408)"/>
<path d="M0 0 C1.98 0 3.96 0 6 0 C6 0.33 6 0.66 6 1 C4.02 1 2.04 1 0 1 C0 0.67 0 0.34 0 0 Z " fill="#000000" transform="translate(386,407)"/>
<path d="M0 0 C1.98 0 3.96 0 6 0 C6 0.33 6 0.66 6 1 C4.02 1 2.04 1 0 1 C0 0.67 0 0.34 0 0 Z " fill="#000000" transform="translate(120,407)"/>
<path d="M0 0 C1.98 0 3.96 0 6 0 C6 0.33 6 0.66 6 1 C4.02 1 2.04 1 0 1 C0 0.67 0 0.34 0 0 Z " fill="#000000" transform="translate(393,406)"/>
<path d="M0 0 C1.98 0 3.96 0 6 0 C6 0.33 6 0.66 6 1 C4.02 1 2.04 1 0 1 C0 0.67 0 0.34 0 0 Z " fill="#000000" transform="translate(113,406)"/>
<path d="M0 0 C1.98 0 3.96 0 6 0 C6 0.33 6 0.66 6 1 C4.02 1 2.04 1 0 1 C0 0.67 0 0.34 0 0 Z " fill="#000000" transform="translate(399,405)"/>
<path d="M0 0 C1.98 0 3.96 0 6 0 C6 0.33 6 0.66 6 1 C4.02 1 2.04 1 0 1 C0 0.67 0 0.34 0 0 Z " fill="#000000" transform="translate(107,405)"/>
<path d="M0 0 C1.98 0 3.96 0 6 0 C6 0.33 6 0.66 6 1 C4.02 1 2.04 1 0 1 C0 0.67 0 0.34 0 0 Z " fill="#000000" transform="translate(405,404)"/>
<path d="M0 0 C1.98 0 3.96 0 6 0 C6 0.33 6 0.66 6 1 C4.02 1 2.04 1 0 1 C0 0.67 0 0.34 0 0 Z " fill="#000000" transform="translate(101,404)"/>
<path d="M0 0 C1.98 0 3.96 0 6 0 C6 0.33 6 0.66 6 1 C4.02 1 2.04 1 0 1 C0 0.67 0 0.34 0 0 Z " fill="#000000" transform="translate(412,403)"/>
<path d="M0 0 C1.98 0 3.96 0 6 0 C6 0.33 6 0.66 6 1 C4.02 1 2.04 1 0 1 C0 0.67 0 0.34 0 0 Z " fill="#000000" transform="translate(418,402)"/>
<path d="M0 0 C1.98 0 3.96 0 6 0 C6 0.33 6 0.66 6 1 C4.02 1 2.04 1 0 1 C0 0.67 0 0.34 0 0 Z " fill="#000000" transform="translate(88,402)"/>
<path d="M0 0 C1.98 0 3.96 0 6 0 C6 0.33 6 0.66 6 1 C4.02 1 2.04 1 0 1 C0 0.67 0 0.34 0 0 Z " fill="#000000" transform="translate(424,401)"/>
<path d="M0 0 C1.98 0 3.96 0 6 0 C6 0.33 6 0.66 6 1 C4.02 1 2.04 1 0 1 C0 0.67 0 0.34 0 0 Z " fill="#000000" transform="translate(82,401)"/>
<path d="M0 0 C1.98 0 3.96 0 6 0 C6 0.33 6 0.66 6 1 C4.02 1 2.04 1 0 1 C0 0.67 0 0.34 0 0 Z " fill="#000000" transform="translate(437,399)"/>
<path d="M0 0 C1.98 0 3.96 0 6 0 C6 0.33 6 0.66 6 1 C4.02 1 2.04 1 0 1 C0 0.67 0 0.34 0 0 Z " fill="#000000" transform="translate(443,398)"/>
<path d="M0 0 C1.98 0 3.96 0 6 0 C6 0.33 6 0.66 6 1 C4.02 1 2.04 1 0 1 C0 0.67 0 0.34 0 0 Z " fill="#000000" transform="translate(315,397)"/>
<path d="M0 0 C1.98 0 3.96 0 6 0 C6 0.33 6 0.66 6 1 C4.02 1 2.04 1 0 1 C0 0.67 0 0.34 0 0 Z " fill="#000000" transform="translate(191,397)"/>
<path d="M0 0 C1.98 0 3.96 0 6 0 C6 0.33 6 0.66 6 1 C4.02 1 2.04 1 0 1 C0 0.67 0 0.34 0 0 Z " fill="#000000" transform="translate(321,396)"/>
<path d="M0 0 C1.98 0 3.96 0 6 0 C6 0.33 6 0.66 6 1 C4.02 1 2.04 1 0 1 C0 0.67 0 0.34 0 0 Z " fill="#000000" transform="translate(185,396)"/>
<path d="M0 0 C1.98 0 3.96 0 6 0 C6 0.33 6 0.66 6 1 C4.02 1 2.04 1 0 1 C0 0.67 0 0.34 0 0 Z " fill="#000000" transform="translate(328,395)"/>
<path d="M0 0 C1.98 0 3.96 0 6 0 C6 0.33 6 0.66 6 1 C4.02 1 2.04 1 0 1 C0 0.67 0 0.34 0 0 Z " fill="#000000" transform="translate(178,395)"/>
<path d="M0 0 C1.98 0 3.96 0 6 0 C6 0.33 6 0.66 6 1 C4.02 1 2.04 1 0 1 C0 0.67 0 0.34 0 0 Z " fill="#000000" transform="translate(334,394)"/>
<path d="M0 0 C1.98 0 3.96 0 6 0 C6 0.33 6 0.66 6 1 C4.02 1 2.04 1 0 1 C0 0.67 0 0.34 0 0 Z " fill="#000000" transform="translate(172,394)"/>
<path d="M0 0 C1.98 0 3.96 0 6 0 C6 0.33 6 0.66 6 1 C4.02 1 2.04 1 0 1 C0 0.67 0 0.34 0 0 Z " fill="#000000" transform="translate(340,393)"/>
<path d="M0 0 C1.98 0 3.96 0 6 0 C6 0.33 6 0.66 6 1 C4.02 1 2.04 1 0 1 C0 0.67 0 0.34 0 0 Z " fill="#000000" transform="translate(166,393)"/>
<path d="M0 0 C1.98 0 3.96 0 6 0 C6 0.33 6 0.66 6 1 C4.02 1 2.04 1 0 1 C0 0.67 0 0.34 0 0 Z " fill="#000000" transform="translate(347,392)"/>
<path d="M0 0 C1.98 0 3.96 0 6 0 C6 0.33 6 0.66 6 1 C4.02 1 2.04 1 0 1 C0 0.67 0 0.34 0 0 Z " fill="#000000" transform="translate(159,392)"/>
<path d="M0 0 C1.98 0 3.96 0 6 0 C6 0.33 6 0.66 6 1 C4.02 1 2.04 1 0 1 C0 0.67 0 0.34 0 0 Z " fill="#000000" transform="translate(353,391)"/>
<path d="M0 0 C1.98 0 3.96 0 6 0 C6 0.33 6 0.66 6 1 C4.02 1 2.04 1 0 1 C0 0.67 0 0.34 0 0 Z " fill="#000000" transform="translate(153,391)"/>
<path d="M0 0 C1.98 0 3.96 0 6 0 C6 0.33 6 0.66 6 1 C4.02 1 2.04 1 0 1 C0 0.67 0 0.34 0 0 Z " fill="#000000" transform="translate(359,390)"/>
<path d="M0 0 C1.98 0 3.96 0 6 0 C6 0.33 6 0.66 6 1 C4.02 1 2.04 1 0 1 C0 0.67 0 0.34 0 0 Z " fill="#000000" transform="translate(147,390)"/>
<path d="M0 0 C1.98 0 3.96 0 6 0 C6 0.33 6 0.66 6 1 C4.02 1 2.04 1 0 1 C0 0.67 0 0.34 0 0 Z " fill="#000000" transform="translate(122,386)"/>
<path d="M0 0 C1.98 0 3.96 0 6 0 C6 0.33 6 0.66 6 1 C4.02 1 2.04 1 0 1 C0 0.67 0 0.34 0 0 Z " fill="#000000" transform="translate(116,385)"/>
<path d="M0 0 C1.98 0 3.96 0 6 0 C6 0.33 6 0.66 6 1 C4.02 1 2.04 1 0 1 C0 0.67 0 0.34 0 0 Z " fill="#000000" transform="translate(403,383)"/>
<path d="M0 0 C1.98 0 3.96 0 6 0 C6 0.33 6 0.66 6 1 C4.02 1 2.04 1 0 1 C0 0.67 0 0.34 0 0 Z " fill="#000000" transform="translate(103,383)"/>
<path d="M0 0 C1.98 0 3.96 0 6 0 C6 0.33 6 0.66 6 1 C4.02 1 2.04 1 0 1 C0 0.67 0 0.34 0 0 Z " fill="#000000" transform="translate(409,382)"/>
<path d="M0 0 C1.98 0 3.96 0 6 0 C6 0.33 6 0.66 6 1 C4.02 1 2.04 1 0 1 C0 0.67 0 0.34 0 0 Z " fill="#000000" transform="translate(97,382)"/>
<path d="M0 0 C1.98 0 3.96 0 6 0 C6 0.33 6 0.66 6 1 C4.02 1 2.04 1 0 1 C0 0.67 0 0.34 0 0 Z " fill="#000000" transform="translate(422,380)"/>
<path d="M0 0 C1.98 0 3.96 0 6 0 C6 0.33 6 0.66 6 1 C4.02 1 2.04 1 0 1 C0 0.67 0 0.34 0 0 Z " fill="#000000" transform="translate(84,380)"/>
<path d="M0 0 C1.98 0 3.96 0 6 0 C6 0.33 6 0.66 6 1 C4.02 1 2.04 1 0 1 C0 0.67 0 0.34 0 0 Z " fill="#000000" transform="translate(428,379)"/>
<path d="M0 0 C1.98 0 3.96 0 6 0 C6 0.33 6 0.66 6 1 C4.02 1 2.04 1 0 1 C0 0.67 0 0.34 0 0 Z " fill="#000000" transform="translate(78,379)"/>
<path d="M0 0 C1.98 0 3.96 0 6 0 C6 0.33 6 0.66 6 1 C4.02 1 2.04 1 0 1 C0 0.67 0 0.34 0 0 Z " fill="#000000" transform="translate(441,377)"/>
<path d="M0 0 C1.98 0 3.96 0 6 0 C6 0.33 6 0.66 6 1 C4.02 1 2.04 1 0 1 C0 0.67 0 0.34 0 0 Z " fill="#000000" transform="translate(65,377)"/>
<path d="M0 0 C1.98 0 3.96 0 6 0 C6 0.33 6 0.66 6 1 C4.02 1 2.04 1 0 1 C0 0.67 0 0.34 0 0 Z " fill="#000000" transform="translate(390,369)"/>
<path d="M0 0 C1.98 0 3.96 0 6 0 C6 0.33 6 0.66 6 1 C4.02 1 2.04 1 0 1 C0 0.67 0 0.34 0 0 Z " fill="#000000" transform="translate(396,368)"/>
<path d="M0 0 C1.98 0 3.96 0 6 0 C6 0.33 6 0.66 6 1 C4.02 1 2.04 1 0 1 C0 0.67 0 0.34 0 0 Z " fill="#000000" transform="translate(110,368)"/>
<path d="M0 0 C1.98 0 3.96 0 6 0 C6 0.33 6 0.66 6 1 C4.02 1 2.04 1 0 1 C0 0.67 0 0.34 0 0 Z " fill="#000000" transform="translate(393,347)"/>
<path d="M0 0 C1.98 0 3.96 0 6 0 C6 0.33 6 0.66 6 1 C4.02 1 2.04 1 0 1 C0 0.67 0 0.34 0 0 Z " fill="#000000" transform="translate(113,347)"/>
<path d="M0 0 C1.98 0 3.96 0 6 0 C6 0.33 6 0.66 6 1 C4.02 1 2.04 1 0 1 C0 0.67 0 0.34 0 0 Z " fill="#000000" transform="translate(400,66)"/>
<path d="M0 0 C1.98 0 3.96 0 6 0 C6 0.33 6 0.66 6 1 C4.02 1 2.04 1 0 1 C0 0.67 0 0.34 0 0 Z " fill="#000000" transform="translate(106,66)"/>
<path d="M0 0 C1.65 0 3.3 0 5 0 C5 0.33 5 0.66 5 1 C3.35 1 1.7 1 0 1 C0 0.67 0 0.34 0 0 Z " fill="#000000" transform="translate(70,399)"/>
<path d="M0 0 C1.65 0 3.3 0 5 0 C5 0.33 5 0.66 5 1 C3.35 1 1.7 1 0 1 C0 0.67 0 0.34 0 0 Z " fill="#000000" transform="translate(380,371)"/>
<path d="M0 0 C1.65 0 3.3 0 5 0 C5 0.33 5 0.66 5 1 C3.35 1 1.7 1 0 1 C0 0.67 0 0.34 0 0 Z " fill="#000000" transform="translate(127,371)"/>
<path d="M0 0 C1.65 0 3.3 0 5 0 C5 0.33 5 0.66 5 1 C3.35 1 1.7 1 0 1 C0 0.67 0 0.34 0 0 Z " fill="#000000" transform="translate(385,370)"/>
<path d="M0 0 C1.65 0 3.3 0 5 0 C5 0.33 5 0.66 5 1 C3.35 1 1.7 1 0 1 C0 0.67 0 0.34 0 0 Z " fill="#000000" transform="translate(122,370)"/>
<path d="M0 0 C1.65 0 3.3 0 5 0 C5 0.33 5 0.66 5 1 C3.35 1 1.7 1 0 1 C0 0.67 0 0.34 0 0 Z " fill="#000000" transform="translate(117,369)"/>
<path d="M0 0 C1.65 0 3.3 0 5 0 C5 0.33 5 0.66 5 1 C3.35 1 1.7 1 0 1 C0 0.67 0 0.34 0 0 Z " fill="#000000" transform="translate(368,352)"/>
<path d="M0 0 C1.65 0 3.3 0 5 0 C5 0.33 5 0.66 5 1 C3.35 1 1.7 1 0 1 C0 0.67 0 0.34 0 0 Z " fill="#000000" transform="translate(139,352)"/>
<path d="M0 0 C1.65 0 3.3 0 5 0 C5 0.33 5 0.66 5 1 C3.35 1 1.7 1 0 1 C0 0.67 0 0.34 0 0 Z " fill="#000000" transform="translate(377,350)"/>
<path d="M0 0 C1.65 0 3.3 0 5 0 C5 0.33 5 0.66 5 1 C3.35 1 1.7 1 0 1 C0 0.67 0 0.34 0 0 Z " fill="#000000" transform="translate(130,350)"/>
<path d="M0 0 C1.65 0 3.3 0 5 0 C5 0.33 5 0.66 5 1 C3.35 1 1.7 1 0 1 C0 0.67 0 0.34 0 0 Z " fill="#000000" transform="translate(382,349)"/>
<path d="M0 0 C1.65 0 3.3 0 5 0 C5 0.33 5 0.66 5 1 C3.35 1 1.7 1 0 1 C0 0.67 0 0.34 0 0 Z " fill="#000000" transform="translate(125,349)"/>
<path d="M0 0 C1.65 0 3.3 0 5 0 C5 0.33 5 0.66 5 1 C3.35 1 1.7 1 0 1 C0 0.67 0 0.34 0 0 Z " fill="#000000" transform="translate(388,348)"/>
<path d="M0 0 C1.65 0 3.3 0 5 0 C5 0.33 5 0.66 5 1 C3.35 1 1.7 1 0 1 C0 0.67 0 0.34 0 0 Z " fill="#000000" transform="translate(119,348)"/>
<path d="M0 0 C1.65 0 3.3 0 5 0 C5 0.33 5 0.66 5 1 C3.35 1 1.7 1 0 1 C0 0.67 0 0.34 0 0 Z " fill="#000000" transform="translate(397,88)"/>
<path d="M0 0 C1.65 0 3.3 0 5 0 C5 0.33 5 0.66 5 1 C3.35 1 1.7 1 0 1 C0 0.67 0 0.34 0 0 Z " fill="#000000" transform="translate(117,68)"/>
<path d="M0 0 C1.65 0 3.3 0 5 0 C5 0.33 5 0.66 5 1 C3.35 1 1.7 1 0 1 C0 0.67 0 0.34 0 0 Z " fill="#000000" transform="translate(395,67)"/>
<path d="M0 0 C1.65 0 3.3 0 5 0 C5 0.33 5 0.66 5 1 C3.35 1 1.7 1 0 1 C0 0.67 0 0.34 0 0 Z " fill="#000000" transform="translate(112,67)"/>
<path d="M0 0 C4 1 4 1 4 1 Z " fill="#000000" transform="translate(266,448)"/>
<path d="M0 0 C4 1 4 1 4 1 Z " fill="#000000" transform="translate(242,448)"/>
<path d="M0 0 C4 1 4 1 4 1 Z " fill="#000000" transform="translate(449,397)"/>
<path d="M0 0 C4 1 4 1 4 1 Z " fill="#000000" transform="translate(59,397)"/>
<path d="M0 0 C4 1 4 1 4 1 Z " fill="#000000" transform="translate(360,376)"/>
<path d="M0 0 C4 1 4 1 4 1 Z " fill="#000000" transform="translate(353,356)"/>
<path d="M0 0 C4 1 4 1 4 1 Z " fill="#000000" transform="translate(155,356)"/>
<path d="M0 0 C4 1 4 1 4 1 Z " fill="#000000" transform="translate(144,353)"/>
<path d="M0 0 C4 1 4 1 4 1 Z " fill="#000000" transform="translate(373,351)"/>
<path d="M0 0 C4 1 4 1 4 1 Z " fill="#000000" transform="translate(135,351)"/>
<path d="M0 0 C0.66 0.33 1.32 0.66 2 1 C1.01 1 0.02 1 -1 1 C-0.67 0.67 -0.34 0.34 0 0 Z " fill="#000000" transform="translate(304,128)"/>
<path d="M0 0 C4 1 4 1 4 1 Z " fill="#000000" transform="translate(377,93)"/>
<path d="M0 0 C4 1 4 1 4 1 Z " fill="#000000" transform="translate(384,91)"/>
<path d="M0 0 C4 1 4 1 4 1 Z " fill="#000000" transform="translate(124,91)"/>
<path d="M0 0 C4 1 4 1 4 1 Z " fill="#000000" transform="translate(120,90)"/>
<path d="M0 0 C4 1 4 1 4 1 Z " fill="#000000" transform="translate(393,89)"/>
<path d="M0 0 C4 1 4 1 4 1 Z " fill="#000000" transform="translate(115,89)"/>
<path d="M0 0 C4 1 4 1 4 1 Z " fill="#000000" transform="translate(374,72)"/>
<path d="M0 0 C4 1 4 1 4 1 Z " fill="#000000" transform="translate(134,72)"/>
<path d="M0 0 C4 1 4 1 4 1 Z " fill="#000000" transform="translate(378,71)"/>
<path d="M0 0 C4 1 4 1 4 1 Z " fill="#000000" transform="translate(130,71)"/>
<path d="M0 0 C4 1 4 1 4 1 Z " fill="#000000" transform="translate(382,70)"/>
<path d="M0 0 C4 1 4 1 4 1 Z " fill="#000000" transform="translate(126,70)"/>
<path d="M0 0 C4 1 4 1 4 1 Z " fill="#000000" transform="translate(122,69)"/>
<path d="M0 0 C3 1 3 1 3 1 Z " fill="#000000" transform="translate(331,386)"/>
<path d="M0 0 C3 1 3 1 3 1 Z " fill="#000000" transform="translate(336,384)"/>
<path d="M0 0 C3 1 3 1 3 1 Z " fill="#000000" transform="translate(173,384)"/>
<path d="M0 0 C3 1 3 1 3 1 Z " fill="#000000" transform="translate(347,380)"/>
<path d="M0 0 C3 1 3 1 3 1 Z " fill="#000000" transform="translate(162,380)"/>
<path d="M0 0 C3 1 3 1 3 1 Z " fill="#000000" transform="translate(350,379)"/>
<path d="M0 0 C3 1 3 1 3 1 Z " fill="#000000" transform="translate(159,379)"/>
<path d="M0 0 C3 1 3 1 3 1 Z " fill="#000000" transform="translate(357,377)"/>
<path d="M0 0 C3 1 3 1 3 1 Z " fill="#000000" transform="translate(152,377)"/>
<path d="M0 0 C3 1 3 1 3 1 Z " fill="#000000" transform="translate(364,375)"/>
<path d="M0 0 C3 1 3 1 3 1 Z " fill="#000000" transform="translate(332,363)"/>
<path d="M0 0 C3 1 3 1 3 1 Z " fill="#000000" transform="translate(177,363)"/>
<path d="M0 0 C3 1 3 1 3 1 Z " fill="#000000" transform="translate(171,361)"/>
<path d="M0 0 C3 1 3 1 3 1 Z " fill="#000000" transform="translate(344,359)"/>
<path d="M0 0 C3 1 3 1 3 1 Z " fill="#000000" transform="translate(165,359)"/>
<path d="M0 0 C3 1 3 1 3 1 Z " fill="#000000" transform="translate(350,357)"/>
<path d="M0 0 C3 1 3 1 3 1 Z " fill="#000000" transform="translate(159,357)"/>
<path d="M0 0 C3 1 3 1 3 1 Z " fill="#000000" transform="translate(357,355)"/>
<path d="M0 0 C3 1 3 1 3 1 Z " fill="#000000" transform="translate(152,355)"/>
<path d="M0 0 C3 1 3 1 3 1 Z " fill="#000000" transform="translate(148,354)"/>
<path d="M0 0 C3 1 3 1 3 1 Z " fill="#000000" transform="translate(359,99)"/>
<path d="M0 0 C3 1 3 1 3 1 Z " fill="#000000" transform="translate(150,99)"/>
<path d="M0 0 C3 1 3 1 3 1 Z " fill="#000000" transform="translate(374,94)"/>
<path d="M0 0 C3 1 3 1 3 1 Z " fill="#000000" transform="translate(135,94)"/>
<path d="M0 0 C3 1 3 1 3 1 Z " fill="#000000" transform="translate(132,93)"/>
<path d="M0 0 C3 1 3 1 3 1 Z " fill="#000000" transform="translate(381,92)"/>
<path d="M0 0 C3 1 3 1 3 1 Z " fill="#000000" transform="translate(128,92)"/>
<path d="M0 0 C3 1 3 1 3 1 Z " fill="#000000" transform="translate(368,74)"/>
<path d="M0 0 C3 1 3 1 3 1 Z " fill="#000000" transform="translate(141,74)"/>
<path d="M0 0 C3 1 3 1 3 1 Z " fill="#000000" transform="translate(371,73)"/>
<path d="M0 0 C3 1 3 1 3 1 Z " fill="#000000" transform="translate(138,73)"/>
<path d="" fill="#000000" transform="translate(0,0)"/>
<path d="" fill="#000000" transform="translate(0,0)"/>
<path d="" fill="#000000" transform="translate(0,0)"/>
<path d="" fill="#000000" transform="translate(0,0)"/>
<path d="" fill="#000000" transform="translate(0,0)"/>
<path d="" fill="#000000" transform="translate(0,0)"/>
<path d="M0 0 C2 1 2 1 2 1 Z " fill="#000000" transform="translate(329,387)"/>
<path d="M0 0 C2 1 2 1 2 1 Z " fill="#000000" transform="translate(181,387)"/>
<path d="M0 0 C2 1 2 1 2 1 Z " fill="#000000" transform="translate(285,386)"/>
<path d="M0 0 C2 1 2 1 2 1 Z " fill="#000000" transform="translate(334,385)"/>
<path d="M0 0 C2 1 2 1 2 1 Z " fill="#000000" transform="translate(290,383)"/>
<path d="M0 0 C2 1 2 1 2 1 Z " fill="#000000" transform="translate(220,383)"/>
<path d="M0 0 C2 1 2 1 2 1 Z " fill="#000000" transform="translate(299,378)"/>
<path d="M0 0 C2 1 2 1 2 1 Z " fill="#000000" transform="translate(211,378)"/>
<path d="M0 0 C2 1 2 1 2 1 Z " fill="#000000" transform="translate(301,377)"/>
<path d="M0 0 C2 1 2 1 2 1 Z " fill="#000000" transform="translate(209,377)"/>
<path d="M0 0 C2 1 2 1 2 1 Z " fill="#000000" transform="translate(307,374)"/>
<path d="M0 0 C2 1 2 1 2 1 Z " fill="#000000" transform="translate(203,374)"/>
<path d="M0 0 C2 1 2 1 2 1 Z " fill="#000000" transform="translate(313,371)"/>
<path d="M0 0 C2 1 2 1 2 1 Z " fill="#000000" transform="translate(320,368)"/>
<path d="M0 0 C2 1 2 1 2 1 Z " fill="#000000" transform="translate(190,368)"/>
<path d="M0 0 C2 1 2 1 2 1 Z " fill="#000000" transform="translate(330,364)"/>
<path d="M0 0 C2 1 2 1 2 1 Z " fill="#000000" transform="translate(330,112)"/>
<path d="M0 0 C2 1 2 1 2 1 Z " fill="#000000" transform="translate(180,112)"/>
<path d="M0 0 C2 1 2 1 2 1 Z " fill="#000000" transform="translate(332,111)"/>
<path d="M0 0 C2 1 2 1 2 1 Z " fill="#000000" transform="translate(334,110)"/>
<path d="M0 0 C2 1 2 1 2 1 Z " fill="#000000" transform="translate(340,107)"/>
<path d="M0 0 C2 1 2 1 2 1 Z " fill="#000000" transform="translate(315,97)"/>
<path d="M0 0 C2 1 2 1 2 1 Z " fill="#000000" transform="translate(195,97)"/>
<path d="M0 0 C2 1 2 1 2 1 Z " fill="#000000" transform="translate(339,85)"/>
<path d="M0 0 C2 1 2 1 2 1 Z " fill="#000000" transform="translate(341,84)"/>
<path d="M0 0 C2 1 2 1 2 1 Z " fill="#000000" transform="translate(169,84)"/>
<path d="M0 0 C2 1 2 1 2 1 Z " fill="#000000" transform="translate(351,80)"/>
<path d="" fill="#000000" transform="translate(0,0)"/>
<path d="" fill="#000000" transform="translate(0,0)"/>
<path d="" fill="#000000" transform="translate(0,0)"/>
<path d="" fill="#000000" transform="translate(0,0)"/>
<path d="" fill="#000000" transform="translate(0,0)"/>
<path d="" fill="#000000" transform="translate(0,0)"/>
<path d="" fill="#000000" transform="translate(0,0)"/>
<path d="" fill="#000000" transform="translate(0,0)"/>
<path d="" fill="#000000" transform="translate(0,0)"/>
<path d="" fill="#000000" transform="translate(0,0)"/>
<path d="" fill="#000000" transform="translate(0,0)"/>
<path d="" fill="#000000" transform="translate(0,0)"/>
<path d="" fill="#000000" transform="translate(0,0)"/>
<path d="" fill="#000000" transform="translate(0,0)"/>
<path d="" fill="#000000" transform="translate(0,0)"/>
<path d="" fill="#000000" transform="translate(0,0)"/>
<path d="" fill="#000000" transform="translate(0,0)"/>
<path d="" fill="#000000" transform="translate(0,0)"/>
<path d="" fill="#000000" transform="translate(0,0)"/>
<path d="" fill="#000000" transform="translate(0,0)"/>
<path d="" fill="#000000" transform="translate(0,0)"/>
<path d="" fill="#000000" transform="translate(0,0)"/>
<path d="" fill="#000000" transform="translate(0,0)"/>
<path d="" fill="#000000" transform="translate(0,0)"/>
<path d="" fill="#000000" transform="translate(0,0)"/>
<path d="" fill="#000000" transform="translate(0,0)"/>
<path d="" fill="#000000" transform="translate(0,0)"/>
<path d="" fill="#000000" transform="translate(0,0)"/>
<path d="" fill="#000000" transform="translate(0,0)"/>
<path d="" fill="#000000" transform="translate(0,0)"/>
<path d="" fill="#000000" transform="translate(0,0)"/>
<path d="" fill="#000000" transform="translate(0,0)"/>
<path d="" fill="#000000" transform="translate(0,0)"/>
<path d="" fill="#000000" transform="translate(0,0)"/>
<path d="" fill="#000000" transform="translate(0,0)"/>
<path d="" fill="#000000" transform="translate(0,0)"/>
<path d="" fill="#000000" transform="translate(0,0)"/>
<path d="" fill="#000000" transform="translate(0,0)"/>
<path d="" fill="#000000" transform="translate(0,0)"/>
<path d="" fill="#000000" transform="translate(0,0)"/>
<path d="" fill="#000000" transform="translate(0,0)"/>
<path d="" fill="#000000" transform="translate(0,0)"/>
<path d="" fill="#000000" transform="translate(0,0)"/>
<path d="" fill="#000000" transform="translate(0,0)"/>
<path d="" fill="#000000" transform="translate(0,0)"/>
<path d="" fill="#000000" transform="translate(0,0)"/>
<path d="" fill="#000000" transform="translate(0,0)"/>
<path d="" fill="#000000" transform="translate(0,0)"/>
<path d="" fill="#000000" transform="translate(0,0)"/>
<path d="" fill="#000000" transform="translate(0,0)"/>
<path d="" fill="#000000" transform="translate(0,0)"/>
<path d="" fill="#000000" transform="translate(0,0)"/>
<path d="" fill="#000000" transform="translate(0,0)"/>
<path d="" fill="#000000" transform="translate(0,0)"/>
<path d="" fill="#000000" transform="translate(0,0)"/>
<path d="" fill="#000000" transform="translate(0,0)"/>
<path d="" fill="#000000" transform="translate(0,0)"/>
<path d="" fill="#000000" transform="translate(0,0)"/>
<path d="" fill="#000000" transform="translate(0,0)"/>
<path d="" fill="#000000" transform="translate(0,0)"/>
<path d="" fill="#000000" transform="translate(0,0)"/>
<path d="" fill="#000000" transform="translate(0,0)"/>
<path d="" fill="#000000" transform="translate(0,0)"/>
<path d="" fill="#000000" transform="translate(0,0)"/>
<path d="" fill="#000000" transform="translate(0,0)"/>
<path d="" fill="#000000" transform="translate(0,0)"/>
<path d="" fill="#000000" transform="translate(0,0)"/>
<path d="" fill="#000000" transform="translate(0,0)"/>
<path d="" fill="#000000" transform="translate(0,0)"/>
<path d="" fill="#000000" transform="translate(0,0)"/>
<path d="" fill="#000000" transform="translate(0,0)"/>
<path d="" fill="#000000" transform="translate(0,0)"/>
<path d="" fill="#000000" transform="translate(0,0)"/>
<path d="" fill="#000000" transform="translate(0,0)"/>
<path d="" fill="#000000" transform="translate(0,0)"/>
<path d="" fill="#000000" transform="translate(0,0)"/>
<path d="" fill="#000000" transform="translate(0,0)"/>
<path d="" fill="#000000" transform="translate(0,0)"/>
<path d="" fill="#000000" transform="translate(0,0)"/>
<path d="" fill="#000000" transform="translate(0,0)"/>
<path d="" fill="#000000" transform="translate(0,0)"/>
<path d="" fill="#000000" transform="translate(0,0)"/>
<path d="" fill="#000000" transform="translate(0,0)"/>
<path d="" fill="#000000" transform="translate(0,0)"/>
<path d="" fill="#000000" transform="translate(0,0)"/>
<path d="" fill="#000000" transform="translate(0,0)"/>
</svg>
